<?xml version="1.0" encoding="utf-8"?>
<!-- Generator: Adobe Illustrator 25.4.1, SVG Export Plug-In . SVG Version: 6.00 Build 0)  -->
<svg version="1.1" id="Layer_1" xmlns="http://www.w3.org/2000/svg" xmlns:xlink="http://www.w3.org/1999/xlink" x="0px" y="0px"
	 viewBox="0 0 108.1 101.9" style="enable-background:new 0 0 108.1 101.9;" xml:space="preserve">
<style type="text/css">
	.st0{fill:#67C397;}
	.st1{fill:#FFFFFF;}
	.st2{fill:#FFFFFF;stroke:#FFFFFF;stroke-width:0.954;stroke-linecap:round;stroke-linejoin:round;stroke-miterlimit:10;}
</style>
<g>
	<g>
		<path class="st0" d="M43.1,1.9C32.5,0.4,22.6,8,16,16.5C4.9,30.8-0.9,49.3,0.1,67.4c0.2,3.8,0.7,7.7,2.9,10.8
			c1.7,2.5,4.3,4.3,6.8,6c5.6,3.7,11.4,7.1,17.3,10.3c6.2,3.3,12.7,6.4,19.7,7.2c13.9,1.6,27-5.8,39-13c4.4-2.6,8.9-5.3,12.1-9.3
			c3.4-4.2,5.2-9.6,6.7-14.9c3.4-11.8,5.9-24.9,0.3-35.9c-5-9.8-15.2-15.5-24.9-20.6c-6-3.2-12-6.3-18.6-7.7s-27.8,1.1-33.2,5"/>
		<g>
			<g>
				<g>
					<path class="st1" d="M99.5,47.9c0-0.5-0.1-1-0.1-1.6c0-0.4,0.1-0.7,0.1-1.1c0-0.7-0.1-1.5-0.1-2.2c-0.1-0.9,0-1.9-0.3-2.8
						c-0.1-0.4-0.2-0.7-0.2-1.1c-0.1-0.6,0-1.1-0.1-1.7c-0.2-0.9-0.4-1.8-0.6-2.7c-0.2-0.9-0.4-1.9-0.7-2.8c-0.3-1-0.5-2-0.9-2.9
						c-0.3-0.8-0.4-1.7-0.7-2.5c-0.3-0.9-0.6-1.8-1-2.6c-0.3-0.7-0.6-1.4-0.9-2c-0.2-0.4-0.3-0.7-0.5-1.1c-0.4-0.6-0.7-1.2-1.1-1.8
						c-0.4-0.7-0.9-1.4-1.4-2C90,16,89,15,88,14c-0.9-0.9-1.8-1.7-2.7-2.5c-1.6-1.3-3.1-2.6-5-3.4c-1.3-0.6-2.7-1-4-1.5
						c-0.4-0.2-0.9-0.2-1.4-0.3C74,6,73.2,5.7,72.3,5.5c-1.8-0.5-3.7-0.8-5.6-1c-0.8-0.1-1.7-0.2-2.5-0.3c-0.7-0.1-1.5-0.3-2.2-0.3
						c-1-0.1-2-0.2-3-0.3c-0.5,0-1.1,0-1.6,0c-1.2-0.1-2.4-0.1-3.6-0.1c-0.8,0-1.7,0.3-2.6,0c-0.1,0-0.3,0-0.4,0
						c-0.7,0.3-1.3,0.4-2,0.4c-0.3,0-0.6,0-0.9-0.2C47.4,3.3,47,3.1,46.4,3c-0.5-0.1-1.1,0.1-1.4,0.6c-0.2,0.3-0.3,0.7-0.5,1
						c-0.1,0.1-0.2,0.2-0.3,0.2c-0.4,0-0.8-0.1-1.2-0.1c-0.5,0-0.8,0.3-1,0.7c-0.2,0.6-0.6,1.1-1.2,1.3c-0.8,0.3-1.6,0.6-2.4,1
						c-1.8,0.8-3.5,1.7-5.2,2.5c-1.3,0.6-2.6,1.3-3.8,2.1c-1.4,0.9-2.8,1.8-4.2,2.8c-1,0.7-2,1.6-3,2.4c-0.8,0.7-1.6,1.5-2.3,2.2
						c-0.8,0.8-1.7,1.7-2.5,2.6c-0.8,0.9-1.5,1.7-2.2,2.6c-0.7,0.9-1.4,1.8-2.1,2.8c-0.8,1.2-1.6,2.5-2.4,3.7
						c-0.5,0.8-1,1.6-1.4,2.5c-0.4,0.8-0.7,1.5-1.1,2.3C7.7,37,7.1,38,6.7,39c-0.4,0.9-0.7,1.9-1,2.8c-0.3,0.8-0.5,1.5-0.6,2.3
						c-0.1,0.6-0.2,1.2-0.2,1.8c-0.1,0.8-0.2,1.5-0.2,2.3c0,0.6,0,1.2-0.1,1.8c-0.1,1.2-0.2,2.3-0.3,3.5c0,0.9,0,1.8,0,2.8
						c0,1.4,0,2.8,0,4.2c0,0.4,0.1,0.8,0.1,1.2c0.2,1.2,0.4,2.3,0.7,3.4c0.5,1.7,1,3.3,1.6,5c0.8,2.4,1.9,4.6,3.2,6.8
						c0.6,1,1.2,2,1.8,2.9c0.6,0.9,1.3,1.9,2,2.8c0.5,0.7,1,1.5,1.6,2.2c0.3,0.5,0.8,0.9,1.1,1.3c0.7,0.7,1.3,1.5,2,2.2
						c0.9,0.9,1.9,1.6,2.9,2.5c0.9,0.8,1.8,1.5,2.8,2.1c1.1,0.6,2.2,1.3,3.4,1.8c1.5,0.7,3,1.4,4.5,2.1c0.7,0.3,1.4,0.5,2.2,0.7
						c1.3,0.3,2.6,0.6,3.8,0.8c1.5,0.3,2.9,0.4,4.4,0.6c0.7,0.1,1.4,0.3,2.1,0.4c1.5,0.2,3,0.3,4.4,0.4c1,0.1,2.1,0.2,3.1,0.2
						c1.2,0,2.4-0.2,3.6-0.4c0.9-0.1,1.8-0.4,2.7-0.6c1.6-0.4,3.2-0.7,4.7-1.1c1.5-0.4,3-0.9,4.5-1.4c1.3-0.4,2.6-1.1,3.7-1.9
						c1.6-1,3.1-2,4.6-3c1.2-0.8,2.5-1.6,3.6-2.5c1-0.8,2-1.7,2.9-2.5c0.9-0.8,1.8-1.7,2.7-2.5c0.5-0.5,1-0.9,1.5-1.3
						c0.9-0.7,1.8-1.4,2.7-2.2c0.6-0.5,1-1.2,1.5-1.8c0.4-0.5,0.7-1.1,1-1.7c0.4-0.9,0.7-1.7,1.1-2.6c0.4-0.8,0.7-1.7,1.1-2.5
						c0.2-0.4,0.4-0.8,0.5-1.2c0.1-0.4,0.2-0.7,0.4-1.1c0.2-0.5,0.4-1.1,0.8-1.5c0.1-0.1,0-0.2,0.1-0.3c0.1-0.5,0.2-1.1,0.4-1.6
						c0.2-0.8,0.5-1.5,0.7-2.3c0.1-0.4,0.2-0.8,0.4-1.2c0.1-0.4,0.2-0.8,0.3-1.2c0.1-0.5,0.1-1,0.2-1.5c0.1-0.5,0.3-1.1,0.4-1.6
						c0.1-0.6,0.3-1.1,0.4-1.7c0-0.1,0.1-0.3,0.1-0.4c0.1-0.6,0.3-1.2,0.4-1.8c0.1-0.7,0.3-1.4,0.4-2.1c0.1-0.9,0.1-1.8,0.1-2.7
						C99.5,49.1,99.5,48.5,99.5,47.9z M69.3,5.8c0.8,0,1.6,0.2,2.4,0.5C72.5,6.5,73.3,6.8,74,7c0.5,0.1,1.1,0.2,1.6,0.4
						c0.3,0.1,0.5,0.2,0.8,0.2c0,0,0,0,0,0.1c-0.4,0-0.8-0.1-1.2-0.1c-0.2,0-0.5-0.1-0.7-0.2C74,7.3,73.6,7.1,73.1,7
						c-0.1,0-0.3-0.1-0.4-0.1c-0.8-0.2-1.5-0.4-2.3-0.7C70,6.1,69.7,6,69.3,5.8C69.3,5.9,69.3,5.8,69.3,5.8z M56.8,4.4
						c0.4,0,0.9,0,1.3,0c0.5,0,1,0,1.6,0c0.7,0.1,1.4,0.2,2,0.2c0.3,0,0.6,0.1,0.9,0.2c-0.5,0-1,0-1.4,0c-0.6,0-1.2,0-1.9-0.1
						c-0.7-0.1-1.5-0.2-2.2-0.2c-0.6,0-1.2,0.1-1.7,0.1c-0.3,0-0.6,0-0.8-0.4C55.3,4.3,56,4.4,56.8,4.4z M46.2,4.1
						c0.2,0,0.4,0,0.6-0.1c0.1,0.1,0.2,0.2,0.3,0.4c-0.6,0.2-1.1,0.3-1.6,0.5C45.5,4.4,45.8,4.1,46.2,4.1z M35.6,96.2
						c-1.5-0.5-3.7-1.5-4.1-1.9c0,0,0-0.1,0-0.1c0.3,0.1,0.6,0.1,0.8,0.2c0.6,0.3,1.2,0.4,1.8,0.5c0.9,0.2,1.7,0.5,2.6,0.9
						c0.5,0.2,1,0.4,1.5,0.6c0.3,0.1,0.7,0.3,1,0.4c0.2,0.1,0.5,0.2,0.9,0.3C39.7,97.1,36.8,96.5,35.6,96.2z M56.7,97.3
						c-0.8,0.2-1.7,0.4-2.5,0.6c-1.8,0.4-3.6,0.6-5.4,0.4c-1.1-0.1-2.1-0.1-3.2-0.2c-0.4,0-0.9-0.1-1.3-0.2c0,0,0-0.1,0-0.1
						c4.7,0.6,9.3,0.3,13.8-0.9l0,0.1C57.7,97.1,57.2,97.2,56.7,97.3z M98.8,50.5c-0.1,1.1,0,2.1-0.2,3.2c-0.1,0.9-0.4,1.8-0.6,2.7
						c-0.1,0.7-0.3,1.3-0.4,2c-0.2,0.8-0.3,1.6-0.5,2.4c-0.2,0.8-0.4,1.5-0.6,2.2c-0.3,0.9-0.5,1.9-0.8,2.8c-0.5,1.2-1,2.3-1.5,3.4
						c-0.2,0.5-0.5,0.9-0.8,1.4c-0.1,0.1-0.2,0.3,0,0.4c0,0,0,0.2,0,0.2c-0.5,1.3-1.2,2.5-2,3.6c-1,1.3-2,2.6-3.1,3.9
						c-0.3,0.4-0.7,0.8-1.1,1.3c-0.5,0.7-1.2,1.1-1.9,1.6c-0.5,0.4-1,0.9-1.5,1.3c-0.8,0.7-1.6,1.4-2.4,2.1c-0.8,0.7-1.6,1.4-2.4,2
						c-0.7,0.6-1.5,1.1-2.2,1.6c-1.1,0.7-2.1,1.4-3.2,2.1c-0.7,0.4-1.4,0.9-2.1,1.3c-0.9,0.5-1.7,1-2.6,1.5
						c-0.8,0.5-1.7,0.8-2.7,1.1c-0.8,0.2-1.5,0.4-2.3,0.6c-1.1,0.2-2.2,0.4-3.3,0.7c-0.7,0.1-1.3,0.4-1.9,0.5c-1,0.2-2,0.3-3,0.5
						c-0.6,0.1-1.2,0.2-1.8,0.3c-0.4,0.1-0.7,0-1.1,0.1c-0.3,0-0.6,0.1-0.9,0.2c-0.8,0.1-1.6,0.1-2.4,0c-1.2-0.1-2.3-0.1-3.5-0.2
						c-0.9,0-1.7-0.1-2.6-0.2c-0.7-0.1-1.3-0.3-2-0.5c-0.6-0.2-1.3-0.3-1.9-0.5c-0.3-0.1-0.6-0.3-1-0.5c-0.8-0.3-1.5-0.6-2.3-0.9
						c-0.9-0.3-1.9-0.5-2.8-0.8c-1.1-0.3-2.2-0.7-3.2-1.2c-0.8-0.4-1.6-0.7-2.4-1c-0.3-0.1-0.6-0.3-0.9-0.5
						c-0.6-0.4-1.2-0.7-1.8-1.1c-0.7-0.5-1.5-1-2.2-1.5c-0.4-0.3-0.9-0.6-1.3-0.9c-0.6-0.5-1.2-1-1.8-1.5c-0.7-0.6-1.4-1.3-2-2
						c-0.5-0.5-0.9-1.2-1.4-1.7c-0.5-0.6-1.1-1.2-1.6-1.9c-0.7-1-1.5-2-2.1-3.1c-1.2-1.8-2.1-3.8-3-5.8c-0.6-1.3-1-2.6-1.5-3.9
						c-0.4-1.2-0.8-2.5-1.2-3.8c-0.4-1.3-0.5-2.7-0.5-4c0-0.4-0.1-0.9-0.1-1.3c0-1.8-0.1-3.7-0.1-5.5c0-2,0.1-4,0.2-6
						c0-0.9,0.1-1.7,0.3-2.6c0.1-0.7,0.4-1.4,0.6-2.1c0.4-1,0.7-2.1,1.1-3.1c0.4-1,0.9-2,1.4-3c0.5-1.1,1.1-2.1,1.6-3.1
						c0.4-0.9,0.8-1.7,1.3-2.6c0.8-1.5,1.5-3,2.7-4.3c0.7-0.8,1.4-1.7,2.1-2.5c0.7-0.8,1.5-1.6,2.2-2.4c0.2-0.3,0.5-0.5,0.7-0.7
						c0.5-0.5,1.1-1,1.6-1.4c0.6-0.6,1.2-1.2,1.9-1.8c0.4-0.3,0.7-0.6,1.1-0.9c0.5-0.3,1-0.6,1.5-1c0.3-0.2,0.5-0.4,0.7-0.6
						c0.3-0.2,0.6-0.4,0.9-0.6c1.1-0.7,2.1-1.5,3.2-2.2c0.5-0.3,1-0.8,1.7-0.9c0.2,0,0.3-0.3,0.5-0.4c0.3-0.2,0.6-0.4,0.9-0.5
						c0.2-0.1,0.5,0,0.7,0.1c0.7,0.4,0.9,0.3,1.5-0.2c0.2-0.2,0.6-0.3,0.9-0.5c0.3-0.1,0.7-0.2,1-0.3c0.4-0.1,0.8-0.1,1.1-0.3
						c0.4-0.2,1-0.3,1.2-0.8c0.1-0.2,0.3-0.5,0.4-0.7c0.1-0.1,0.1-0.2,0.1-0.3c0.1-0.1,0.1-0.2,0.2-0.3c0.7-0.3,1.4-0.6,2.1-0.8
						c0.8-0.2,1.6-0.4,2.4-0.7c0.7-0.2,1.3-0.4,2-0.5C48.9,5,49.5,5,50.1,4.9c0.2,0,0.5-0.1,0.7-0.2c0.5-0.2,1-0.2,1.5,0
						c0.1,0,0.2,0,0.3,0c0.2,0.1,0.4,0.1,0.5,0.2c0.3,0.2,0.5,0.4,0.8,0.5c0.4,0.2,0.8,0.4,1.3,0.5c0,0,0.1,0,0.1,0
						c0.5-0.3,1.1-0.2,1.6-0.3c0.5,0,1,0,1.5,0.1C59.2,5.8,60,5.9,60.8,6c0.2,0,0.5,0.1,0.7,0.1c0.1,0,0.1,0,0.2,0
						C62.1,5.8,62.6,6,63,6c0.4,0,0.9,0,1.3,0c0.2,0,0.3,0.1,0.5,0.1c0.4,0,0.8,0,1.2,0.1c0.2,0,0.4,0.1,0.6,0.1
						c0.7,0.1,1.4,0.2,2.2,0.3c0.3,0.1,0.7,0.2,1,0.3c0.3,0.1,0.6,0.2,1,0.2c0.6,0,1.1,0.3,1.6,0.6c0.1,0.1,0.3,0,0.5,0.1
						c0.3,0.1,0.5,0.2,0.8,0.3c0.4,0.1,0.7,0.1,1.1,0.2c0.1,0,0.3,0,0.4,0c0.7,0.2,1.4,0.4,2.1,0.6C77.6,9,78,9.2,78.3,9.4
						c0.7,0.2,1.4,0.4,2,0.7c0.8,0.3,1.6,0.5,2.3,1c0.4,0.3,0.8,0.6,1.1,0.9c0.6,0.5,0.8,1.3,1.4,1.8c0.4,0.4,0.9,0.7,1.4,0.9
						c0.3,0.2,0.4,0,0.5-0.3c0.5,0.5,0.9,0.9,1.4,1.3c0.3,0.3,0.6,0.6,0.9,0.9c0.5,0.5,0.9,1,1.3,1.6c0.4,0.5,0.7,0.9,1,1.4
						c0.6,1.1,1.3,2.1,1.8,3.2c0.3,0.7,0.7,1.4,1,2.1c0.3,0.8,0.6,1.6,0.9,2.4c0.3,1,0.6,2.1,0.9,3.1c0.1,0.4,0.2,0.9,0.4,1.4
						c0.3,1,0.6,1.9,0.8,2.9c0.3,1.2,0.5,2.4,0.8,3.6c0.1,0.6,0.1,1.2,0.2,1.9c0.1,0.4,0.2,0.8,0.2,1.2c0.1,0.7,0.2,1.5,0.2,2.2
						c0.1,0.8,0.1,1.6,0.1,2.4c0,0.6-0.1,1.2,0,1.7C99,48.5,98.8,49.5,98.8,50.5z"/>
					<g>
						<path class="st1" d="M51.4,61.7c-0.3-0.3-0.5-0.7-0.8-1c0,0,0,0-0.1,0c-0.3-0.2-0.6-0.4-0.9-0.5c-0.1,0.2-0.2,0.5-0.3,0.7
							c-0.2,0.5-0.4,1-0.6,1.5c-0.4,1,0,1.9,0,2.9c0,0.4,0.2,0.8,0.7,1c0.1,0,0.2,0,0.2,0c0.3-0.4,0.6-0.8,0.9-1.2
							c0.2-0.2,0.3-0.5,0.5-0.7c0.2-0.2,0.2-0.3,0.1-0.5c-0.1-0.4-0.2-0.7,0.2-1c0.2-0.1,0.2-0.3,0-0.5C51.3,62,51.2,61.8,51.4,61.7
							z"/>
						<path class="st1" d="M47,53.8c0.1-0.1,0.3-0.2,0.5-0.3c0.1-0.1,0.1-0.2,0.1-0.3c-0.1,0-0.2,0-0.3,0c-0.2,0.1-0.4,0.2-0.7,0.3
							c0-0.6,0.3-0.9,0.7-1.2c0.2-0.2,0.4-0.4,0.3-0.7c0-0.1,0-0.2,0-0.3c0.1-0.3,0-0.5-0.3-0.5c-0.2,0-0.3-0.1-0.5-0.2
							c-0.1,0-0.1-0.1-0.2-0.1c-0.7,0.2-1.4,0.4-2,1c-0.2,0.2-0.3,0.4-0.2,0.6c0.1,0.1,0.3,0.1,0.4,0.1c0,0.2,0,0.4,0,0.6
							c0,0.3,0.1,0.6,0.1,0.8c0,0.3,0,0.4,0.3,0.4c0.2,0,0.3,0,0.4,0.2c0.1,0.4,0.3,0.5,0.6,0.2C46.5,54.2,46.8,54,47,53.8z"/>
						<path class="st1" d="M23.8,56.8c0.2-0.1,0.4-0.1,0.6-0.3c0.4-0.2,0.9-0.5,1.3-0.8c0.3-0.2,0.6-0.6,1-0.8
							c0.3-0.2,0.3-0.4,0.4-0.7c0.1-0.3,0.1-0.5,0-0.8c-0.1-0.3-0.3-0.3-0.5-0.2c-0.7,0.3-1.3,0.7-2,1c-0.3,0.2-0.7,0.3-1,0.5
							c-0.5,0.2-0.8,0.6-0.9,1.1c0,0.1,0,0.2,0,0.4C22.8,56.8,23.3,56.7,23.8,56.8z"/>
						<path class="st1" d="M28.8,59.3C29,59.2,29,59,29,58.8c0-0.2,0-0.5-0.1-0.7c-0.1-0.3,0-0.7-0.5-0.7c-0.2,0-0.4,0-0.6,0.2
							c-1.2,0.9-2.3,2-2.9,3.4c0.3,0.6,0.8,0.3,1.2,0.2c0.4-0.2,0.8-0.5,1.2-0.8C27.7,60,28.2,59.7,28.8,59.3z"/>
						<path class="st1" d="M24.1,75.7c0-0.3,0-0.6,0-0.8c-0.1-0.6-0.5-0.9-0.9-1.2c-0.2-0.1-0.3-0.1-0.4,0c-0.6,0.5-1.2,1.1-1.7,1.7
							c-0.2,0.2-0.2,0.5-0.3,0.7c0,0.4,0.2,0.7,0.5,0.7c0.2,0,0.5,0.1,0.7,0.2c0.3,0.2,0.6,0.1,0.8-0.1c0.4-0.3,0.8-0.7,1.3-1
							C24,75.8,24.1,75.8,24.1,75.7z"/>
						<path class="st1" d="M27.7,64.5c0,0,0.1,0,0.2,0c0.3-0.2,0.7-0.4,1-0.7c0.3-0.4,0.7-0.5,1.2-0.6c0.5-0.2,0.7-0.5,0.5-1
							c-0.1-0.2-0.1-0.3-0.2-0.5c0-0.1-0.1-0.2-0.2-0.2c-0.1-0.1-0.3-0.2-0.4-0.4c-0.3-0.4-0.7-0.4-1-0.1c-0.1,0.1-0.2,0.2-0.3,0.3
							c-0.7,0.6-1.1,1.4-1.4,2.3C26.9,64,27.2,64.4,27.7,64.5z"/>
						<path class="st1" d="M54.8,43.1c-0.3,0.4-0.6,0.9-0.9,1.3c-0.6,0.1-1.2,0.1-1.8,0.2c-0.3,0-0.5,0.3-0.4,0.5
							c0,0.2,0.4,0.4,0.6,0.3c0.4-0.1,0.9-0.1,1.3-0.1c0.2,0,0.3,0,0.5,0.1c0.6,0.3,1.3,0.2,1.9,0c0.4-0.1,0.7-0.5,0.7-1.4
							c0-0.5-0.1-1-0.7-1.1c-0.2,0-0.4,0-0.6-0.1C55.1,42.8,55,42.9,54.8,43.1z M55.8,43.7c0.1,0,0.1,0.2,0.2,0.4
							c0.1,0.6-0.1,0.7-0.8,0.7c-0.1,0-0.2,0-0.3,0c-0.1,0-0.2-0.1-0.1-0.2c0.1-0.3,0.3-0.6,0.5-0.8C55.3,43.7,55.6,43.7,55.8,43.7z
							"/>
						<path class="st1" d="M53,66.8c0.1-0.2,0.3-0.3,0.4-0.5c0.3-0.7,0.5-1.3,0.7-2c0.1-0.2,0.3-0.3,0.3-0.5
							c-0.1-0.5-0.2-1.1-0.7-1.4c-0.3-0.2-0.7-0.2-0.8-0.6c0,0-0.1,0-0.1,0c0,0.1,0,0.1,0,0.2c0,0.2,0,0.5-0.1,0.7
							c-0.2,0.8-0.5,1.5-0.3,2.3C52.6,65.6,52.4,66.3,53,66.8z"/>
						<path class="st1" d="M36.7,85.3c-0.2-0.2-0.4-0.3-0.7-0.5c-0.2,0.4-0.4,0.7-0.5,1c-0.4,1.1-0.5,2.1,0.3,3
							c0.1,0.1,0.4,0.2,0.5,0.3c0,0,0.2-0.2,0.2-0.4c0.2-0.7,0.4-1.4,0.6-2C37.4,86.1,37.2,85.6,36.7,85.3z"/>
						<path class="st1" d="M39.4,40.5c0.1-0.3-0.1-0.6-0.4-0.8c-0.5-0.3-1-0.5-1.5-0.8c-0.6-0.2-0.6-0.2-0.9,0.2c0,0,0,0,0,0
							c0.1,0.3,0.2,0.5,0.2,0.8c0,0.6,0.4,1.1,0.6,1.6c0,0.1,0.2,0.1,0.4,0.2c0.1,0,0.3,0.1,0.4,0c0.3-0.1,0.8-0.1,1-0.3
							C39.3,41.3,39.3,40.9,39.4,40.5z"/>
						<path class="st1" d="M39.5,51.8c-0.2-0.7-1.1-1.5-1.6-1.8c-0.1-0.1-0.3-0.1-0.3,0c-0.5,0.4-1,1-1.3,1.6
							c-0.1,0.3,0.3,0.8,0.6,0.8c0.2,0,0.4-0.1,0.6,0c0.5,0.1,1,0.3,1.5,0.5C39.2,52.1,39.2,52,39.5,51.8z"/>
						<path class="st1" d="M25.2,78.3c-0.4,0.3-0.7,0.5-1,0.8c-0.4,0.5-0.9,0.9-1.2,1.5c-0.2,0.3-0.1,0.9,0.2,1.1
							c0.2,0.2,0.8,0.1,1-0.2c0.4-0.4,0.9-0.8,1.2-1.2c0.2-0.3,0.4-0.7,0.5-1.1c0-0.2-0.2-0.4-0.4-0.6
							C25.4,78.5,25.3,78.4,25.2,78.3z"/>
						<path class="st1" d="M38.1,35.6c-0.2,0-0.3,0.1-0.2,0.3c0.1,0.3,0.1,0.6,0.2,0.9c0,0.2,0.4,1.2,0.5,1.3c0,0,0.1,0,0.1,0
							c0.4-0.1,0.8-0.1,1.1-0.2c0.1,0,0.3-0.2,0.3-0.3c0.1-0.3,0.2-0.7,0.3-1c0.1-0.4,0-0.7-0.4-0.9c-0.3-0.1-0.5-0.2-0.8-0.2
							c0,0,0,0,0,0.1c-0.2,0-0.4,0-0.6,0C38.5,35.5,38.3,35.6,38.1,35.6z"/>
						<path class="st1" d="M41.1,55.3c0.2-0.1,0.2-0.3,0.1-0.5c-0.3-0.8-0.9-1.3-1.6-1.7c0,0.1-0.1,0.3-0.1,0.4
							c-0.2,0.4-0.5,0.9-0.7,1.3c-0.1,0.1-0.1,0.3,0,0.4c0.2,0.3,0,1,0.7,0.9c0,0,0,0,0,0c0.1,0.3,0.4,0.2,0.6,0.3
							c0.2,0,0.5,0.1,0.8,0.2c0-0.3-0.1-0.5-0.1-0.8C41,55.6,41,55.4,41.1,55.3z"/>
						<path class="st1" d="M16.2,71.5c0.3,0.2,0.5,0.3,0.9,0.2c0.2-0.1,0.5-0.1,0.7-0.1c0.1,0,0.3,0,0.4-0.1
							c0.4-0.2,0.8-0.5,1.2-0.7c0.1,0,0.2-0.1,0.3-0.1c0.2,0,0.2-0.1,0.3-0.3c0.2-0.5,0-0.9-0.3-1.3C18.1,69.2,17.2,70.4,16.2,71.5z
							"/>
						<path class="st1" d="M38.4,44.1c-0.1-0.2-0.2-0.4,0-0.7c0.1-0.1,0.1-0.4,0-0.5c-0.5-0.9-1.5-1.1-2.3-0.3
							C36,42.7,36,42.8,36,42.8c0.1,0.4,0.2,0.9,0.4,1.2c0.2,0.3,0.2,0.9,0.8,0.8c0.3,0,0.5-0.1,0.8-0.1
							C38.6,44.7,38.6,44.6,38.4,44.1z"/>
						<path class="st1" d="M46.6,63.4c0.4-0.1,0.9-0.7,0.9-1.2c0-0.4,0.3-0.7,0.6-0.7c-0.2-0.5-0.3-0.9-0.5-1.4
							c0-0.1-0.1-0.1-0.1-0.2c-0.3-0.2-0.5-0.4-0.8-0.6c-0.1,0.2-0.2,0.4-0.3,0.5c-0.5,1-0.3,2.1-0.2,3.2
							C46.3,63.3,46.4,63.4,46.6,63.4z"/>
						<path class="st1" d="M57,62.7c-0.3-0.3-0.7-0.5-1-0.7c0,0.8,0,1.6,0,2.5c0,0.6,0.1,1.2,0.6,1.6c0.1,0.1,0.2,0.1,0.4,0.2
							c0.1-0.1,0.2-0.3,0.2-0.4c0.1-0.3,0.1-0.7,0.2-1c0.2-0.6,0.4-1.2-0.1-1.7C57.1,63.1,57.1,62.9,57,62.7z"/>
						<path class="st1" d="M32.9,84.3c-0.1-0.1-0.2-0.2-0.3-0.3c0,0-0.1,0-0.1,0c0,0.1,0,0.2-0.1,0.3c-0.1,0.2-0.2,0.4-0.3,0.6
							c-0.4,0.7-0.8,1.4-0.7,2.3c0,0.4,0.3,0.6,0.6,0.7c0.2,0,0.3,0.1,0.5,0.1c0.1-0.4,0.3-0.9,0.4-1.3c0.1-0.4,0.2-0.9,0.3-1.3
							c0-0.2,0-0.4-0.1-0.6C33.2,84.5,33.1,84.4,32.9,84.3z"/>
						<path class="st1" d="M36.7,45.5c-0.2,0.1-0.5,0.4-0.5,0.5c0,0.4,0.2,0.8,0.3,1.1c0.2,0.4,0.4,0.7,0.6,1c0.1,0,0.3,0,0.4,0
							c0.3,0,0.5,0,0.6-0.4c0.1-0.4,0.2-0.9,0.2-1.3c0-0.3,0.1-0.6,0.1-1c0-0.2-0.1-0.3-0.3-0.3C37.6,45.4,37.1,45.4,36.7,45.5z"/>
						<path class="st1" d="M44.4,59.4c0.4,0,0.3-0.2,0.2-0.4c-0.2-0.7-0.3-1.4-0.8-1.9c-0.8,0.7-1.3,2.3-1,3.4
							c0.2,0,0.3,0.1,0.5,0.1c0.4,0.1,0.8-0.2,0.9-0.6C44.2,59.7,44.3,59.4,44.4,59.4z"/>
						<path class="st1" d="M28.6,80.8c-0.1,0-0.3,0-0.3,0.1c-0.3,0.6-0.7,1.3-0.9,1.9c-0.1,0.2,0.1,0.5,0.2,0.6
							c0.1,0.1,0.4,0.1,0.6,0c0.2-0.1,0.3-0.1,0.4,0.1c0,0.1,0.1,0.2,0.2,0.3c0.1-0.1,0.3-0.2,0.3-0.4c0.2-0.4,0.3-0.7,0.4-1.1
							c0.1-0.2,0.2-0.3,0.2-0.4C29.5,81.4,29.2,81,28.6,80.8z"/>
						<path class="st1" d="M62.6,66.9c0.1-0.2,0.1-0.4,0.2-0.6c-0.1-0.3,0-0.6-0.4-0.6c-0.1,0-0.1-0.1-0.2-0.2
							c-0.2-0.6-0.4-1.3-0.6-1.9c-0.1-0.3-0.2-0.5-0.4-0.7c-0.1-0.1-0.4-0.1-0.6-0.2c-0.1,0.2-0.1,0.4-0.2,0.5c0,0.1,0,0.2,0.1,0.3
							c0.2,0.7,0.4,1.3,0.7,2c0.2,0.5,0.5,1,0.8,1.4C62.2,67.2,62.5,67.2,62.6,66.9z"/>
						<path class="st1" d="M62.4,62.2c-0.1,0-0.2,0.3-0.3,0.4c0,0.1,0,0.2,0,0.3c0.2,0.6,0.5,1.2,0.8,1.8c0,0,0.1,0.1,0.1,0.1
							c0.2,0.3,0.4,0.6,0.6,0.9c0.1,0.2,0.2,0.4,0.4,0.5c0.2,0.2,0.4,0.1,0.5-0.1c0.1-0.1,0.1-0.3,0.1-0.4c0,0,0,0,0.1,0
							c-0.1-0.2-0.3-0.5-0.4-0.7c-0.5-0.8-0.9-1.6-1.4-2.4C62.7,62.3,62.5,62.2,62.4,62.2z"/>
						<path class="st1" d="M66.5,64c0.2-0.2,0.1-0.4-0.1-0.6c-0.3-0.3-0.6-0.7-0.9-1c-0.3-0.4-0.6-0.8-1-1.1
							c-0.1-0.1-0.5-0.2-0.6-0.1c-0.2,0.1-0.2,0.4-0.3,0.6c0.1,0.1,0.1,0.2,0.2,0.3c0.2,0.2,0.4,0.4,0.5,0.6
							c0.1,0.1,0.2,0.4,0.3,0.5c0.5,0.3,0.8,0.9,1.3,1.1C66.2,64.3,66.4,64.2,66.5,64z"/>
						<path class="st1" d="M49.2,52.3c-0.6,0.3-1,0.7-1.3,1.2c-0.2,0.4-0.6,1,0,1.5c0.1,0.1,0,0.2,0.1,0.3c0.1,0.1,0.2,0.3,0.3,0.4
							c0.1-0.1,0.2-0.3,0.3-0.4c0.1-0.3,0.1-0.6,0.5-0.8c0.2-0.1,0.4-0.3,0.5-0.5c0.1-0.3,0.2-0.7-0.1-1.1c0,0,0-0.1,0-0.2
							C49.4,52.5,49.3,52.4,49.2,52.3z"/>
						<path class="st1" d="M22.7,52.9c0.2,0.1,0.4,0.3,0.6,0.4c0.4,0,0.8-0.1,1.2-0.2c0.3-0.1,0.5-0.3,0.7-0.5
							c0.1-0.1,0.2-0.2,0.4-0.3c0.2-0.1,0.4-0.1,0.6-0.2c0.2-0.1,0.3-0.3,0.5-0.5c-0.2-0.1-0.4-0.2-0.6-0.3c-0.1,0-0.2,0-0.3,0
							c-0.4,0.1-0.8,0.3-1.3,0.4C23.7,51.9,23.2,52.4,22.7,52.9z"/>
						<path class="st1" d="M12.2,50.6c0.2-0.2,0.4-0.4,0.6-0.6c0.1-0.1,0.1-0.2,0.2-0.4c-0.2,0-0.4-0.1-0.5,0
							c-0.7,0.3-1.4,0.6-2.1,0.8c-0.6,0.2-1.1,0.5-1.8,0.4C8.7,50.8,8.8,50.9,9,51c0.4,0.4,0.9,0.6,1.5,0.5
							C11.1,51.3,11.7,51.1,12.2,50.6z"/>
						<path class="st1" d="M40.8,31.5c-0.2,0.1-0.3,0.2-0.2,0.4c0.1,0.3,0.4,0.5,0.1,0.8c0.1,0.4,0.2,0.8,0.3,1.2
							c0,0.1,0.2,0.2,0.3,0.2c0.3-0.1,0.4,0.1,0.7,0.2c0.2,0.1,0.3,0.1,0.3-0.2c0-0.3,0-0.6,0.2-0.8c0.2-0.3,0.1-0.4,0-0.6
							c-0.1-0.2-0.2-0.3-0.3-0.5C41.7,31.9,41.6,31.2,40.8,31.5z"/>
						<path class="st1" d="M17.5,65.8c0-0.1,0-0.2,0-0.3c0-0.1-0.1-0.2-0.1-0.3c-0.1-0.3-0.2-0.4-0.5-0.3c-0.7,0.2-1.1,0.7-1.5,1.2
							c-0.2,0.2-0.2,0.4-0.1,0.6c0.1,0.2,0.3,0.4,0.6,0.3c0.1,0,0.2,0,0.3,0C16.9,67,17.6,66.5,17.5,65.8z"/>
						<path class="st1" d="M15.1,62.1c-0.2-0.4-0.4-0.5-0.8-0.3c-0.4,0.2-0.7,0.4-1.1,0.7c-0.4,0.3-0.7,0.5-1.1,0.8
							C12,63.3,12,63.5,12,63.6c0,0.1,0.2,0.2,0.3,0.2c0.3-0.1,0.6-0.2,0.9-0.4c0.5-0.3,1.1-0.6,1.7-0.6c0.1,0,0.2-0.1,0.3-0.2
							C15.2,62.4,15.2,62.2,15.1,62.1z"/>
						<path class="st1" d="M68.6,61.3c-0.1-0.1-0.2-0.1-0.3-0.2c-0.5-0.4-1-0.9-1.5-1.3c-0.2-0.2-0.4-0.3-0.6-0.4
							c-0.1,0-0.2,0-0.2,0c-0.1,0.1-0.3,0.2-0.3,0.3c0,0.2,0.1,0.4,0.2,0.5c0.5,0.4,1,0.7,1.4,1.2c0.3,0.3,0.7,0.5,1.1,0.6
							c0.2,0,0.3-0.2,0.5-0.2C68.8,61.6,68.8,61.5,68.6,61.3z"/>
						<path class="st1" d="M93.7,54.7c-0.1-0.1-0.4-0.1-0.5-0.1c-0.6,0.3-1.2,0.6-1.8,0.9c0.2,0.3,0.4,0.6,0.8,0.6
							c0.3,0,0.6,0.2,0.7,0.5c0,0.1,0.2,0.2,0.3,0.2c0.1,0,0.2-0.1,0.2-0.2c0.2-0.3,0.3-0.7,0.5-1C94.1,55.2,94,54.8,93.7,54.7z"/>
						<path class="st1" d="M70.5,85.3c0-0.1,0-0.2-0.1-0.2c-0.4-0.2-0.8-0.4-1.2-0.6c-0.3-0.1-0.5,0.1-0.4,0.4
							c0.1,0.4,0.2,0.9,0.4,1.3c0.3,0.6,0.7,1,1.4,0.9c0,0,0-0.1,0-0.1C70.5,86.3,70.3,85.8,70.5,85.3z"/>
						<path class="st1" d="M58.7,56.2c0-0.2-0.1-0.5-0.2-0.6c-0.5-0.8-1-1.6-1.2-2.5c0-0.1-0.2-0.2-0.3-0.1
							c-0.3,0.1-0.4,0.3-0.4,0.6c0.1,0.2,0.1,0.4,0.2,0.7c0.3,0.8,0.7,1.5,1.3,2.2c0.1,0.1,0.3,0.1,0.4,0.1
							C58.6,56.4,58.7,56.3,58.7,56.2z"/>
						<path class="st1" d="M48.6,34.5c-0.3,0.1-0.4,0.3-0.3,0.6c0.2,0.4,0.3,0.9,0.6,1.3c0.2,0.4,0.5,0.7,0.8,1
							c0.1,0.1,0.4,0.1,0.6,0.1c0.1,0,0.1-0.2,0.2-0.3c-0.1-0.2-0.2-0.3-0.3-0.5c-0.2-0.2-0.3-0.4-0.4-0.7c-0.1-0.5-0.4-0.9-0.6-1.3
							C49.1,34.5,48.9,34.4,48.6,34.5z"/>
						<path class="st1" d="M59.1,53.4c0.4,0.5,0.9,0.9,1.4,1.2c0.3,0.2,0.8,0,0.8-0.4c0,0-0.1-0.2-0.3-0.3c-0.1-0.1-0.3-0.2-0.4-0.3
							c-0.5-0.5-1-1-1.6-1.5c-0.1-0.1-0.3-0.3-0.4-0.1c-0.2,0.2-0.3,0.4-0.1,0.6C58.8,52.9,59,53.2,59.1,53.4z"/>
						<path class="st1" d="M46.4,38.6c-0.2,0.1-0.3,0.3-0.3,0.6c0.1,0.6,0.5,0.8,0.9,1.1c0.3,0.2,0.6,0.5,0.6,0.9
							c0.1,0.4,0.3,0.5,0.6,0.3c0.1-0.1,0.1-0.3,0.2-0.5c-0.1-0.3-0.2-0.6-0.4-0.9c-0.3-0.4-0.7-0.8-1.1-1.2
							C46.8,38.7,46.6,38.5,46.4,38.6z"/>
						<path class="st1" d="M67.2,57.4c-0.1,0.2,0,0.4,0.2,0.5c0.2,0.1,0.4,0.2,0.5,0.4c0.3,0.3,0.5,0.6,0.8,0.8
							c0.3,0.2,0.5,0.4,0.8,0.7c0.2-0.1,0.4-0.2,0.5-0.3c0.1-0.1,0-0.3-0.1-0.4c-0.4-0.5-0.9-0.9-1.4-1.3c-0.3-0.2-0.6-0.4-0.9-0.5
							C67.5,57.1,67.3,57.2,67.2,57.4z"/>
						<path class="st1" d="M11.2,42c0.5,0.3,1,0.6,1.5,1c0.1,0.1,0.2,0.3,0.4,0.4c0.3,0.1,0.6,0.2,0.8,0.3c0.2-0.3,0-0.6-0.1-0.9
							c-0.1-0.4-0.3-0.8-0.8-0.9c-0.3,0-0.5-0.1-0.8-0.1c-0.5,0-1,0-1.5,0c0,0,0,0,0,0.1C10.9,41.8,11.1,41.9,11.2,42z"/>
						<path class="st1" d="M49.9,34.1c0.1,0.5,0.3,0.9,0.4,1.4c0.1,0.3,0.1,0.7,0.2,1c0,0.1,0.2,0.2,0.3,0.3
							c0.1-0.1,0.3-0.3,0.3-0.4c0-0.2,0-0.5,0-0.6c0-0.9-0.3-2-0.6-2.5C50.3,33,50.2,33,50,33.2C49.7,33.4,49.8,33.8,49.9,34.1z"/>
						<path class="st1" d="M20.8,49.9c0.2,0.1,0.4,0.2,0.5,0.2c0.3,0,0.5-0.2,0.8-0.2c0.7-0.2,1.3-0.5,2-0.7c0.1,0,0.1-0.1,0.2-0.2
							c0.1-0.1,0.1-0.3,0.2-0.4C23.7,48.2,21,49.2,20.8,49.9z"/>
						<path class="st1" d="M54.7,53.3c-0.1,0.1,0,0.3,0,0.5c0.1,1,0.3,1.9,0.4,2.9c0,0.2,0.3,0.4,0.4,0.4c0.3,0,0.3-0.3,0.3-0.5
							c0-0.5-0.1-1-0.4-1.4c0-0.1-0.1-0.1-0.1-0.2c-0.1-0.5-0.1-1.1-0.2-1.6c0,0,0.1,0,0.1-0.1c-0.1-0.1-0.2-0.2-0.3-0.3
							C54.9,53.1,54.7,53.2,54.7,53.3z"/>
						<path class="st1" d="M13.7,40.8c0.2,0.1,0.4,0.1,0.5,0.2c0.1-0.2,0.3-0.3,0.4-0.5c-0.1-0.1-0.2-0.3-0.4-0.4
							c-0.3-0.2-0.7-0.5-1-0.7c-0.1,0-0.1-0.1-0.2-0.1c-0.5,0-1,0-1.6,0c0,0-0.1,0.1-0.2,0.1c0.4,0.2,0.6,0.5,1,0.7
							C12.7,40.4,13.2,40.6,13.7,40.8z"/>
						<path class="st1" d="M68.1,31c0,0.1,0.2,0.2,0.3,0.2c0.3-0.1,0.6-0.2,0.7-0.5c0-0.1,0.1-0.2,0.1-0.3c0.2-0.2,0.4-0.5,0.6-0.7
							c0.2-0.3,0.2-0.7,0.6-0.9c0.1-0.1,0.2-0.3,0.2-0.4c-0.2,0-0.4-0.2-0.5-0.1c-0.3,0.2-0.7,0.5-1,0.9c-0.4,0.5-0.7,1-1,1.5
							C68.1,30.7,68,30.9,68.1,31z"/>
						<path class="st1" d="M54.5,32.2c0,0-0.2,0-0.2,0c-0.1,0.2-0.2,0.3-0.3,0.5c-0.1,0.7-0.1,1.3-0.1,2c0,0,0,0,0,0
							c0,0.3,0.1,0.6,0.1,0.8c0,0.1,0.1,0.2,0.2,0.4c0.1-0.1,0.3-0.2,0.3-0.3c0.1-0.3,0.1-0.5,0.1-0.8c0-0.8,0-1.6,0-2.4
							C54.8,32.3,54.6,32.2,54.5,32.2z"/>
						<path class="st1" d="M51.2,42.1c0,0.2,0.1,0.5,0.2,0.6c0.6,0.4,1.3,0.8,2,1.2c0.1,0.1,0.3,0,0.4,0c0.1-0.1,0.1-0.3,0.1-0.4
							c-0.1-0.3-0.3-0.5-0.5-0.7c-0.5-0.5-1.1-0.8-1.9-0.9C51.3,41.9,51.1,42,51.2,42.1z"/>
						<path class="st1" d="M21.1,24.7C21.1,24.7,21.2,24.7,21.1,24.7c0-0.3-0.1-0.5-0.2-0.8c0.3,0.1,0.6,0.1,1,0.1
							c0-0.2,0-0.5,0.1-0.6c0.3-0.3,0.1-0.6,0-0.9c-0.5,0.3-0.9,0.6-1.4,0.7c-0.4,0.1-0.7,0.3-1,0.5c0.2,0.3,0.4,0.5,0.7,0.7
							C20.6,24.3,20.8,24.8,21.1,24.7z"/>
						<path class="st1" d="M62.7,28.1c0,0.1,0.3,0.2,0.4,0.3c0.1-0.1,0.2-0.1,0.3-0.1c0.2-0.2,0.4-0.5,0.4-0.8c0-0.6,0-1.1-0.1-1.7
							c0-0.1-0.1-0.3-0.2-0.3c-0.1,0-0.3,0-0.4,0c-0.1,0.2-0.3,0.4-0.3,0.6c0,0.4,0.1,0.8,0.1,1.2c0,0.1,0,0.2-0.1,0.3
							C62.7,27.8,62.6,28,62.7,28.1z"/>
						<path class="st1" d="M42.5,88.3c-0.2-0.3-0.5-0.7-1-0.9c-0.1,0.6-0.1,1-0.1,1.5c0,0.5,0.4,1,0.9,1c0.1,0,0.2,0,0.2-0.1
							c0-0.4,0.4-0.7,0.2-1.1C42.7,88.6,42.6,88.5,42.5,88.3z"/>
						<path class="st1" d="M42.9,29.4c-0.1,0-0.1,0.3-0.1,0.4c0.1,0.6,0.2,1.1,0.4,1.7c0.1,0.3,0.3,0.5,0.5,0.8c0,0,0.1,0,0.1,0
							c0.2-0.5,0.3-1.1,0.3-1.6c0-0.5-0.3-0.8-0.6-1.1C43.3,29.4,43.1,29.4,42.9,29.4z"/>
						<path class="st1" d="M66.2,28.8c0-0.1,0.1-0.2,0.1-0.3c0.2-0.6,0.4-1.2,0.6-1.7c0.1-0.2-0.2-0.5-0.4-0.3
							c-0.2,0.1-0.4,0.3-0.5,0.5c-0.1,0.3-0.2,0.6-0.3,0.8c-0.1,0.3-0.2,0.6-0.3,0.9c0,0,0,0,0,0c0,0,0,0.1,0,0.1
							c0,0.2,0.1,0.5,0.4,0.5C66,29.3,66.2,29.1,66.2,28.8z"/>
						<path class="st1" d="M94.4,51.2c-0.6,0.4-1.1,0.8-1.7,1.2c0.7,0.4,1.3,0.7,1.8,1c0.1-0.3,0.1-0.7,0.2-1
							c0.1-0.3,0.2-0.6-0.1-0.9C94.5,51.3,94.4,51.2,94.4,51.2z"/>
						<path class="st1" d="M72.3,56.6c0.3-0.1,0.2-0.3,0-0.4c-0.3-0.2-0.7-0.4-1-0.6c-0.3-0.2-0.7-0.4-1-0.4c-0.1,0-0.4,0.1-0.5,0.3
							c-0.1,0.1,0.1,0.4,0.2,0.4c0.3,0.3,0.7,0.5,1.1,0.7c0.2,0.1,0.3,0.2,0.5,0.3C71.8,56.9,72.1,56.7,72.3,56.6z"/>
						<path class="st1" d="M45.7,47.7c-1-0.1-1.8,0.4-2.4,1c-0.1,0.1-0.2,0.2-0.3,0.4c0,0.1,0,0.2,0.1,0.3c0,0,0.2,0,0.3,0
							c0.2-0.1,0.3-0.3,0.5-0.4c0.6-0.3,1.2-0.7,1.9-0.8c0.2,0,0.3-0.2,0.5-0.3c0-0.1,0-0.1,0-0.2c-0.1-0.1-0.2-0.1-0.3-0.2
							C45.9,47.7,45.8,47.8,45.7,47.7z"/>
						<path class="st1" d="M71.4,50.9c0,0.1,0.2,0.1,0.3,0.1c0.4,0.1,0.9,0.2,1.3,0.2c0.2,0,0.4,0.1,0.6,0.1c0.3,0,0.5-0.1,0.7-0.1
							c0.2,0,0.4-0.1,0.4-0.3c0-0.1-0.2-0.2-0.3-0.3c-0.7-0.1-1.4-0.3-2.1-0.4c-0.2,0-0.5,0.1-0.7,0.2
							C71.5,50.6,71.4,50.8,71.4,50.9z"/>
						<path class="st1" d="M45.5,30.6c0.1-0.1,0.2-0.2,0.3-0.3c0.1-0.1,0.2-0.3,0.2-0.4c0-0.4-0.1-0.8-0.2-1.1
							c-0.1-0.2-0.3-0.5-0.4-0.7c-0.1-0.1-0.4,0-0.4,0.1c-0.1,0.1-0.2,0.4-0.2,0.5c0,0.4,0.2,0.8,0.3,1.2
							C45,30.2,45.1,30.5,45.5,30.6z"/>
						<path class="st1" d="M73.2,53.4c-0.5-0.2-1-0.4-1.4-0.5c-0.3-0.1-0.6-0.2-0.9-0.3c-0.3-0.1-0.6,0.2-0.5,0.3
							c0.1,0.2,0.2,0.5,0.6,0.4c0,0,0.1,0,0.2,0.1c0.5,0.4,1.2,0.5,1.8,0.7c0.1,0,0.2,0,0.3-0.1c0.1-0.1,0.2-0.2,0.2-0.3
							C73.4,53.6,73.3,53.5,73.2,53.4z"/>
						<path class="st1" d="M52.6,47.2c0.3-0.1,0.6-0.3,0.9-0.5c0.1,0.3,0.2,0.5,0.3,0.8c0,0.1,0.2,0.1,0.2,0.1
							c0.1,0,0.1-0.1,0.1-0.2c0-0.5,0-0.9,0-1.4c0-0.1-0.2-0.3-0.2-0.2c-0.3,0.1-0.7,0.1-1,0.3c-0.3,0.1-0.5,0.5-0.7,0.8
							c0,0.1,0,0.2,0.1,0.3C52.4,47.2,52.5,47.3,52.6,47.2z"/>
						<path class="st1" d="M72.2,48.9c0.5,0,0.9,0.1,1.4,0.1c0.2,0,0.3,0.1,0.5,0.1c0.2,0,0.3-0.2,0.5-0.2c-0.1-0.1-0.2-0.3-0.3-0.4
							c-0.1-0.1-0.2-0.1-0.3-0.2c-0.5-0.1-1-0.2-1.5-0.2c0,0,0,0,0,0c-0.2,0-0.5,0-0.6,0.1c-0.2,0.1-0.3,0.2-0.4,0.4
							c0.1,0.1,0.3,0.3,0.4,0.4C72,49,72.1,48.9,72.2,48.9z"/>
						<path class="st1" d="M63,51.3c-0.3-0.2-0.6-0.2-0.9-0.4c-0.3-0.2-0.7-0.4-1-0.5c-0.3-0.1-0.5,0-0.6,0.3c0,0.1,0.1,0.4,0.2,0.4
							c0.4,0.2,0.9,0.5,1.4,0.7c0.2,0.1,0.5,0.2,0.8,0.3c0.3,0,0.5-0.1,0.4-0.3C63.3,51.6,63.2,51.4,63,51.3z"/>
						<path class="st1" d="M67.4,85.9c-0.1-0.3-0.4-0.4-0.6-0.7c0,0-0.1,0-0.1,0.1c0,0.5,0.1,1,0.2,1.5c0.1,0.5,0.3,1,0.7,1.3
							c0.1,0.1,0.3,0.1,0.4,0.1c0-0.1,0.1-0.3,0.1-0.4C67.9,87.1,67.7,86.5,67.4,85.9z"/>
						<path class="st1" d="M73.1,84.3c0.1-0.2,0-0.4-0.2-0.5c-0.2-0.1-0.3-0.2-0.4-0.3c-0.3-0.1-0.7-0.3-1-0.4c0,0-0.1,0.1-0.1,0.1
							c0,0.2,0,0.3,0.1,0.5c0.2,0.4,0.5,0.7,0.8,1.1c0.2,0.2,0.4,0.3,0.7,0.4c0.3,0.1,0.4,0,0.3-0.3C73.1,84.7,73,84.5,73.1,84.3z"
							/>
						<path class="st1" d="M70,32.4c0.1,0.1,0.2,0.2,0.3,0.3c0.3-0.1,0.5-0.1,0.6-0.2c0.5-0.4,1.1-0.8,1.6-1.2c0.1,0,0-0.3-0.1-0.4
							c-0.2-0.2-0.5-0.1-0.7,0c-0.5,0.3-1,0.7-1.5,1C70.1,32.1,69.9,32.2,70,32.4z"/>
						<path class="st1" d="M21.8,46.3c0.1-0.1,0.2-0.2,0.4-0.2c0.4,0,0.7-0.2,0.9-0.6c-0.2-0.3-0.5-0.3-0.8-0.2
							c-0.7,0.1-1.4,0.3-2.1,0.5C20.4,46.3,21.3,46.6,21.8,46.3z"/>
						<path class="st1" d="M45,43c0.5,0,1,0.2,1.5,0.2c0.1,0,0.3,0,0.4-0.1c0.3-0.2,0.1-0.7-0.4-0.8c-0.4-0.1-0.7-0.2-1.1-0.2
							c0,0,0,0,0,0c-0.1,0-0.3,0-0.4,0c-0.2,0.1-0.4,0.3-0.4,0.5C44.5,42.8,44.7,42.9,45,43z"/>
						<path class="st1" d="M56.1,35.5c0.2-0.3,0.3-0.6,0.5-0.9c0.1-0.2,0-0.5,0.1-0.7c0.2-0.5,0-0.8-0.1-1.2
							C56.2,32.8,56,33,56,33.5c0,0.4-0.1,0.8-0.2,1.2c0,0.2-0.1,0.4-0.2,0.6c0,0.1,0.1,0.3,0.2,0.4C55.9,35.6,56.1,35.6,56.1,35.5z
							"/>
						<path class="st1" d="M55.2,41.3c-0.2-0.5-0.3-1-0.5-1.4c0-0.1-0.3-0.1-0.4-0.2c-0.1,0.2-0.2,0.3-0.1,0.4
							c0.2,0.8,0.6,1.5,0.3,2.4c0,0,0,0,0,0c0,0.1,0.1,0.2,0.1,0.2c0.1,0,0.2,0,0.3,0c0.1-0.1,0.2-0.2,0.2-0.3
							c0.1-0.3,0.2-0.7,0.3-1c0,0,0,0,0,0C55.2,41.5,55.2,41.4,55.2,41.3z"/>
						<path class="st1" d="M59.9,27.5c0.1,0.2,0.3,0.1,0.5-0.1c0.3-0.3,0.5-0.8,0.3-1.3c-0.1-0.2-0.1-0.4-0.1-0.6
							c0-0.3-0.1-0.4-0.4-0.4c-0.2,0-0.5,0.3-0.4,0.5c0,0.3,0.1,0.6,0.1,0.9c0,0-0.1,0.2-0.1,0.3C59.8,27,59.8,27.3,59.9,27.5z"/>
						<path class="st1" d="M65,48.7c0.1-0.1,0.1-0.3,0.2-0.4c-0.1,0-0.3-0.1-0.4-0.1c-0.2,0-0.5,0-0.7-0.1c-0.3-0.1-0.5-0.2-0.8-0.4
							c-0.2-0.1-0.4,0-0.6,0.2c-0.2,0.2,0,0.3,0.1,0.4c0.4,0.4,0.9,0.5,1.5,0.7C64.6,48.9,64.8,48.8,65,48.7z"/>
						<path class="st1" d="M62.9,38.3c0.1,0.1,0.1,0.3,0.3,0.3c0.1,0,0.2,0,0.3-0.1c0.2-0.1,0.3-0.3,0.4-0.4
							c0.2-0.3,0.5-0.6,0.7-0.9c0.2-0.2,0.3-0.5,0.4-0.7c0-0.1,0.1-0.2,0-0.3c0-0.1-0.2,0-0.3,0c0,0-0.1,0.1-0.1,0.1
							c-0.5,0.5-0.9,1-1.4,1.5C63,37.9,63,38.1,62.9,38.3z"/>
						<path class="st1" d="M76.8,80.6c-0.3-0.1-0.6-0.3-0.9-0.3c-0.2,0-0.4,0.1-0.2,0.3c0.2,0.4,0.5,0.8,0.8,1
							c0.3,0.2,0.8,0.3,1.1,0.5c0,0,0.1-0.1,0.1-0.1c-0.1-0.2-0.2-0.4-0.3-0.7C77.3,81,77.2,80.7,76.8,80.6z"/>
						<path class="st1" d="M71.1,34.7c-0.1,0.1-0.2,0.3-0.2,0.4c0,0.1,0.2,0.2,0.4,0.2c0.1-0.1,0.2-0.1,0.3-0.1
							c0.6-0.4,1.2-0.8,1.7-1.3c0.1-0.1,0.2-0.3,0.1-0.3c-0.1-0.1-0.3-0.2-0.4-0.1c-0.3,0.1-0.6,0.3-0.9,0.5
							C71.7,34.2,71.4,34.5,71.1,34.7z"/>
						<path class="st1" d="M65.4,86.9c-0.1-0.5-0.4-0.6-0.6-0.9c-0.1,0.8-0.1,1.6,0.2,2.4c0.2,0.4,0.4,0.6,0.8,0.6
							c0-0.2,0-0.3-0.1-0.4C65.6,88,65.4,87.4,65.4,86.9z"/>
						<path class="st1" d="M58.1,36.5c0,0.1,0,0.3,0,0.3c0.1,0,0.3,0.1,0.3,0c0.3-0.3,0.7-0.7,0.9-1.1c0.2-0.6,0.3-1.2,0.5-1.8
							c0,0-0.1-0.2-0.1-0.2c-0.1,0-0.3,0-0.3,0.1c-0.1,0.2-0.3,0.5-0.3,0.7c-0.1,0.7-0.3,1.3-0.8,1.7C58.2,36.2,58.2,36.4,58.1,36.5
							z"/>
						<path class="st1" d="M43.4,45.5c0,0.2,0.3,0.3,0.5,0.2c0.3-0.1,0.6-0.1,0.9-0.2c0,0,0,0,0,0c0.2,0,0.3,0,0.5,0
							c0.3,0.1,0.3-0.1,0.4-0.3c0.1-0.2-0.1-0.3-0.2-0.4c-0.7-0.2-1.3-0.2-1.9,0.1C43.4,45.1,43.4,45.4,43.4,45.5z"/>
						<path class="st1" d="M51.2,27.8c0.1,0,0.2-0.1,0.3-0.2c0.4-0.3,0.4-0.7,0.4-1.2c0-0.1,0-0.2,0-0.2c0-0.2-0.1-0.3-0.1-0.5
							c-0.1-0.3-0.4-0.4-0.6-0.2c-0.3,0.3-0.2,0.6-0.1,0.9c0.1,0.4,0,0.6-0.2,0.9c-0.1,0.1-0.1,0.3-0.1,0.4
							C51,27.8,51.1,27.9,51.2,27.8z"/>
						<path class="st1" d="M81.3,51.8c0.6-0.2,1.1-0.4,1.6-0.1c0.1,0,0.2,0,0.2,0c0.1,0,0.2-0.1,0.2-0.1c0.1-0.1,0.1-0.3,0.2-0.5
							c-0.4-0.3-0.9-0.5-1.5-0.3c-0.2,0.1-0.5,0.2-0.7,0.3C80.9,51.3,80.9,51.5,81.3,51.8z"/>
						<path class="st1" d="M90.3,59c0.3,0.1,0.5,0.2,0.8,0.3c0.4,0.1,1.1-0.1,1.3-0.4c0.2-0.4,0.1-0.7-0.1-1
							C91.6,58.3,91,58.6,90.3,59z"/>
						<path class="st1" d="M53,26.2c0,0-0.1,0-0.1,0.1c0.1,0.1,0.2,0.4,0.3,0.4c0.2,0,0.4,0,0.6-0.1c0.1-0.1,0.2-0.3,0.1-0.4
							c-0.1-0.4-0.3-0.8-0.5-1.2c-0.1-0.2-0.3-0.2-0.5-0.1c-0.3,0.2-0.4,0.5-0.2,0.9C52.9,25.9,53,26,53,26.2z"/>
						<path class="st1" d="M14.6,34.7c0.2,0.3,0.4,0.5,0.9,0.5c-0.1-0.2-0.1-0.4-0.2-0.6c0.1-0.1,0.2-0.1,0.3-0.2
							c-0.1-0.1-0.1-0.3-0.2-0.3c-0.6-0.3-1.1-0.6-1.7-1c0,0-0.1,0-0.1,0c0,0.1,0.1,0.2,0.1,0.2C14,33.8,14.3,34.2,14.6,34.7z"/>
						<path class="st1" d="M10.5,52.9c0.5,0.5,1.2,0.6,1.8,1.1c-0.1-0.6,0.2-0.9,0.5-1.3C12,52.4,11.3,52.8,10.5,52.9z"/>
						<path class="st1" d="M44.3,88.4c-0.1,0.5-0.1,0.9,0.1,1.3c0.2,0.4,0.4,0.8,0.8,1C45.7,89.7,45.3,88.9,44.3,88.4z"/>
						<path class="st1" d="M72,37.7c-0.1,0-0.2,0.1-0.2,0.2c0,0,0.1,0.2,0.1,0.2c0.2,0.2,0.5,0.2,0.8,0.1c0.2-0.1,0.4-0.2,0.7-0.2
							c0.5-0.1,1-0.4,1.1-0.8c-0.5-0.2-0.9-0.1-1.3,0.1C72.8,37.4,72.3,37.5,72,37.7z"/>
						<g>
							<path class="st1" d="M56,77.4c-0.2-0.2-0.5-0.2-0.6,0c-0.1,0.2-0.2,0.5-0.3,0.8c-0.6-0.2-0.6,0.5-0.9,0.6
								c-0.4-0.3-0.8-0.6-1.2-0.8c-0.2-0.1-0.4-0.1-0.6-0.1c0,0-0.1,0.3-0.1,0.5c0.1,0.6,0.2,1.1,0.2,1.7c0,0.4,0.1,0.8,0.2,1.1
								c0.1,0.3,0.3,0.5,0.8,0.5c0-1.2,0.8-2,1.6-2.8c0,0.2,0,0.3,0.1,0.4c0.1,0.4,0.2,0.8,0.3,1.2c0.1,0.2,0.3,0.3,0.4,0.4
								c0.2,0.1,0.4,0.1,0.6,0.1c0.1-0.1,0.2-0.2,0.3-0.3c0,0,0.1,0,0.1,0c0-0.4,0-0.8,0-1.2c0-0.1,0-0.3,0-0.4
								c0.2-0.4-0.1-0.6-0.2-1C56.5,77.8,56.2,77.6,56,77.4z"/>
							<path class="st1" d="M35.6,67.7c-0.4-0.5-0.8-1.1-1.4-1.4c-0.1-0.1-0.3,0-0.4-0.1c-0.4,0.6-0.8,1.2-1.3,1.8
								c-0.5,0.6-0.8,1.3-0.9,2.1c-0.1,0.4,0,0.9,0.3,1.2c0.2,0.1,0.3,0.2,0.4,0c0.2-0.2,0.3-0.5,0.5-0.7c0.3-0.3,0.6-0.6,0.9-0.9
								c0.1-0.1,0.2,0,0.2-0.1c0,0.1,0,0.1,0,0.2c0,0,0,0.1,0,0.2c0.3-0.3,0.6-0.6,0.9-0.9c0.2-0.2,0.4-0.4,0.7-0.7
								C35.7,68.3,35.8,67.9,35.6,67.7z"/>
							<path class="st1" d="M32.4,65.9c0.2-0.1,0.4-0.5,0.4-0.7c-0.1-0.3-0.2-0.6-0.4-1c-0.2-0.4-0.7-0.6-1-0.3
								c-0.6,0.7-1.1,1.3-1.7,2c-0.3,0.5-0.7,0.9-0.7,1.6c-0.1,0.3,0.1,0.4,0.3,0.6c0.2,0.1,0.4,0,0.5-0.1c0.2-0.2,0.4-0.3,0.6-0.4
								c0.5-0.5,1-1,1.5-1.4C32.1,66,32.2,65.9,32.4,65.9z"/>
							<path class="st1" d="M42.8,73.6c-0.1,0-0.2,0-0.2,0.1c-0.2,0.4-0.4,0.8-0.5,1.2c-0.1,0.5-0.2,1-0.2,1.4
								c-0.1,0.6-0.2,1.2-0.4,1.8c0,0,0.1,0,0.1,0c0,0.4,0.3,0.8,0.7,0.8c0.1,0,0.1,0,0.1-0.1c0.2-0.2,0.4-0.5,0.5-0.7
								c0.3-0.9,0.6-1.9,0.9-2.8c0.1-0.2,0.2-0.4,0.2-0.6C44,74.2,43.3,73.6,42.8,73.6z"/>
							<path class="st1" d="M37.6,70.2c-0.6-0.6-1.2-0.5-1.8-0.2c0.1,0.4,0.3,0.7,0.8,0.8c-0.2,0.4-0.4,0.8-0.5,1.2
								c-0.2,0.6-0.2,1.2-0.4,1.8c-0.1,0.3,0.1,0.4,0.3,0.5c0.2,0.1,0.4,0.1,0.5-0.1c0.3-0.5,0.6-0.9,0.9-1.4
								c0.2-0.3,0.5-0.5,0.6-0.8c0.3-0.5,0.3-0.9-0.1-1.4C38,70.4,37.8,70.4,37.6,70.2z"/>
							<path class="st1" d="M48.5,76.5c-0.4-0.2-0.8-0.3-1.2-0.4c-0.1,0-0.2,0.1-0.2,0.2c-0.1,0.3-0.2,0.6-0.3,0.9
								c-0.2,0.7-0.3,1.5-0.5,2.2c-0.1,0.3,0.1,0.7,0.5,0.9c0.3-0.4,0.7-0.8,0.9-1.3c0.3-0.7,0.6-1.5,0.9-2.2
								C48.6,76.8,48.6,76.5,48.5,76.5z"/>
							<path class="st1" d="M40.5,72.4c-0.6,0.9-1.1,1.8-1.7,2.8c-0.3,0.4-0.2,0.5,0.2,0.8c0,0,0.1,0.1,0.1,0.1
								c0.3,0.1,0.6,0.4,0.9,0.1c0-0.2,0.1-0.4,0.2-0.6c0.1-0.3,0.3-0.6,0.4-0.9c0.1-0.2,0-0.5,0-0.8c0.2-0.5,0.2-1,0-1.6
								C40.6,72.3,40.6,72.4,40.5,72.4z"/>
							<path class="st1" d="M50.4,77c-0.2-0.1-0.3-0.1-0.4,0.1c-0.4,0.5-0.3,1.1-0.1,1.7c0.1,0.3,0.2,0.5,0.4,0.7
								c0.2,0.2,0.5,0.4,0.9,0.6c0-0.1,0.1-0.2,0.1-0.3c0.1-0.4,0.3-0.9,0.4-1.3c0-0.1,0-0.3,0-0.4C51.3,77.6,50.9,77.3,50.4,77z"/>
							<path class="st1" d="M59.3,77.4c0-0.1-0.2-0.4-0.3-0.3c-0.1,0-0.3,0.2-0.4,0.3c-0.1,0.2,0,0.4-0.1,0.5c0,0.7,0.1,1.3,0.6,1.8
								c0.1,0.1,0.2,0.1,0.3,0.1c0.2-0.1,0.3-0.3,0.3-0.6C59.6,78.5,59.5,77.9,59.3,77.4z"/>
							<path class="st1" d="M65,77.7c0-0.1-0.1-0.3-0.1-0.4c0-0.1-0.1-0.2-0.2-0.3c-0.1-0.4-0.3-0.8-0.4-1.3
								c-0.1-0.2-0.1-0.4-0.3-0.3c-0.2,0.1-0.5,0.1-0.4,0.4c0.1,0.6,0.2,1.1,0.4,1.7c0.1,0.2,0.3,0.3,0.6,0.5
								C64.8,78,64.9,77.9,65,77.7z"/>
							<path class="st1" d="M67.3,76.7c0.1-0.1,0.1-0.4,0.1-0.5c-0.2-0.5-0.5-0.9-0.5-1.5c0-0.1,0-0.2-0.1-0.2
								c-0.1,0-0.3-0.1-0.4-0.1c-0.1,0.1-0.2,0.3-0.3,0.4c0.1,0.7,0.3,1.3,0.6,1.8C66.9,76.9,67.2,76.9,67.3,76.7z"/>
							<path class="st1" d="M69.5,74.2c0-0.2-0.1-0.4-0.3-0.5c-0.2-0.1-0.4,0.3-0.4,0.6c0,0.2,0.1,0.4,0.2,0.6
								c0.2,0.4,0.4,0.8,0.8,1c0.3,0.1,0.4,0,0.6-0.2c0.1-0.2,0.1-0.4-0.2-0.5C69.7,75,69.5,74.6,69.5,74.2z"/>
							<path class="st1" d="M62.6,76.8c-0.1-0.2-0.1-0.4-0.4-0.3c-0.3,0.1-0.4,0.2-0.3,0.5c0.1,0.6,0.2,1.1,0.7,1.6
								c0.1,0.1,0.3,0.2,0.5,0.1c0.1,0,0.2-0.2,0.2-0.3c-0.1-0.2-0.1-0.3-0.2-0.5C62.9,77.5,62.7,77.1,62.6,76.8z"/>
							<path class="st1" d="M76.1,69c0.1,0.1,0.2,0.1,0.3,0.2c0.2-0.1,0.3-0.2,0.5-0.3c0.2-0.1,0.2-0.3,0-0.4
								c-0.4-0.1-0.5-0.5-0.7-0.7c-0.1-0.2-0.2-0.3-0.4-0.5c-0.1-0.1-0.3-0.2-0.5,0c-0.2,0.2-0.2,0.3-0.1,0.5
								C75.5,68.2,75.8,68.6,76.1,69z"/>
							<path class="st1" d="M75.1,70.4c-0.5,0-0.7-0.3-1-0.7c-0.1-0.2-0.3-0.3-0.5-0.1c-0.1,0.1-0.2,0.3-0.2,0.5c0,0.3,0.9,1,1.2,1
								c0.2,0,0.6-0.3,0.6-0.5C75.3,70.6,75.2,70.4,75.1,70.4z"/>
							<path class="st1" d="M73,73.1c-0.4-0.2-0.7-0.5-0.9-0.9c-0.1-0.2-0.3-0.3-0.5-0.2c-0.2,0.1-0.3,0.3-0.2,0.6
								c0.2,0.3,0.3,0.6,0.5,0.8c0.2,0.2,0.5,0.3,0.8,0.5c0.1-0.3,0.3-0.5,0.4-0.7C73.2,73.2,73.1,73.2,73,73.1z"/>
						</g>
						<path class="st1" d="M74.5,45.2c-0.5,0-1.1,0-1.6,0c0,0,0,0,0-0.1c-0.1,0-0.2,0-0.3,0.1c-0.2,0.1-0.5,0.1-0.4,0.5
							c0,0.2,0.4,0.3,0.7,0.2c0.1,0,0.1-0.1,0.2-0.1c0.1,0,0.2-0.1,0.3-0.1c0.5,0.2,0.9,0,1.3-0.3c0.1,0,0.1-0.1,0.1-0.2
							C74.6,45.3,74.6,45.2,74.5,45.2z"/>
						<path class="st1" d="M47.8,28.6c0.2,0,0.3,0,0.5,0c0.4,0.1,0.6-0.1,0.6-0.5c0-0.3,0-0.5,0-0.8c0-0.3-0.1-0.3-0.4-0.3
							c-0.3,0-0.4,0.3-0.4,0.6c0.1,0.3,0,0.4-0.3,0.4c-0.1,0-0.1,0-0.2,0c-0.3,0-0.5,0.1-0.5,0.4C47.3,28.5,47.6,28.5,47.8,28.6z"/>
						<path class="st1" d="M80.3,60.8c0.2,0.2,0.4,0.2,0.6,0.1c0.2-0.2,0.1-0.4,0-0.6c-0.3-0.3-0.7-0.6-1.1-0.9
							c-0.2-0.2-0.7,0.1-0.7,0.5c0,0,0.1,0.1,0.2,0.2c0.2,0.1,0.4,0.2,0.5,0.3C80,60.5,80.2,60.6,80.3,60.8z"/>
						<path class="st1" d="M80.8,77.9c-0.1,0-0.1,0-0.2,0c-0.5,0-1.1-0.1-1.6-0.1c0,0,0,0.1,0,0.1c0.2,0.2,0.4,0.4,0.6,0.5
							c0.4,0.2,0.9,0.3,1.3,0.4c0.3,0.1,0.4,0,0.4-0.3C81.2,78.2,81.3,77.8,80.8,77.9z"/>
						<path class="st1" d="M65.8,42.9c0.1-0.3,0-0.5-0.3-0.5c-0.6,0.1-1.2,0.3-1.6,0.9c-0.1,0.1,0,0.3,0,0.4c0.1,0,0.3,0.1,0.4,0
							c0.4-0.3,0.8-0.4,1.2-0.6C65.7,43.2,65.8,43,65.8,42.9z"/>
						<path class="st1" d="M61.3,37.4c0,0,0.2-0.1,0.3-0.2c0.4-0.6,0.7-1.2,1.1-1.8c0.1-0.1,0-0.3-0.1-0.4c-0.1,0-0.2,0-0.3,0.1
							c-0.4,0.5-0.7,0.9-1.1,1.4c-0.1,0.1-0.1,0.3-0.2,0.5C61.1,37.2,61.2,37.3,61.3,37.4z"/>
						<path class="st1" d="M75.2,43.1c0-0.1,0-0.2-0.1-0.3c-0.5-0.3-0.9-0.6-1.6-0.6c-0.3,0-0.4,0.2-0.4,0.4c0,0.2,0.3,0.4,0.5,0.4
							c0.2,0,0.4,0,0.6,0.1c0.2,0,0.4,0.1,0.7,0.2C75,43.3,75.2,43.2,75.2,43.1z"/>
						<path class="st1" d="M65.4,46.2c0-0.1-0.1-0.2-0.2-0.2c-0.3-0.1-0.6-0.2-0.8-0.2c-0.3-0.1-0.6,0-0.8,0.2
							c-0.1,0.1-0.1,0.3-0.1,0.4c0,0.1,0.3,0.2,0.4,0.1c0.2-0.1,0.4,0,0.5,0.1c0.1,0.1,0.3,0.1,0.5,0.1c0.1-0.1,0.3-0.1,0.4-0.2
							C65.4,46.5,65.4,46.3,65.4,46.2z"/>
						<path class="st1" d="M14,38c0.1,0.1,0.4,0.1,0.5,0c0.2-0.1,0.4-0.3,0.3-0.6c-0.1-0.4-0.1-0.4-0.5-0.3c-0.2,0-0.4,0-0.7-0.1
							c-0.2,0-0.3-0.1-0.5-0.2c0,0,0,0.1-0.1,0.1c0.1,0.2,0.1,0.4,0.2,0.5C13.5,37.6,13.7,37.8,14,38z"/>
						<path class="st1" d="M54.9,48.8c0,0.1,0.1,0.2,0.2,0.2c0.1,0,0.2-0.1,0.3-0.2c0-0.1,0-0.2,0-0.3c0-0.2,0-0.3,0-0.5
							c0-0.5-0.1-0.9-0.1-1.4c0-0.1-0.2-0.2-0.3-0.3c-0.1,0.1-0.2,0.2-0.2,0.4c0,0.5,0.1,0.9,0.1,1.4C54.9,48.3,54.9,48.6,54.9,48.8
							z"/>
						<path class="st1" d="M57.1,26.4c0.2,0.1,0.5,0.1,0.6-0.2c0.1-0.4,0.1-0.8,0.1-1.2c0-0.1-0.2-0.2-0.3-0.3
							c-0.4,0-0.5,0.2-0.5,0.4c0,0.2,0,0.5-0.1,0.7C56.9,26.2,56.9,26.3,57.1,26.4z"/>
						<path class="st1" d="M79.1,65.1c0-0.1-0.1-0.3-0.1-0.3c-0.4,0-0.7-0.2-1-0.5c-0.1-0.1-0.3,0-0.4,0c-0.1,0.1-0.2,0.2-0.2,0.3
							c0.1,0.3,0.8,0.9,1.1,0.9C78.6,65.6,79.1,65.3,79.1,65.1z"/>
						<path class="st1" d="M12.1,46.6c0,0,0-0.1,0.1-0.1c-0.2-0.3-0.4-0.5-0.7-0.8c-0.1-0.1-0.2-0.1-0.2-0.1c-0.4,0-0.8,0.1-1.3,0.1
							c0,0,0,0,0,0C10.6,46.2,11.2,46.7,12.1,46.6z"/>
						<path class="st1" d="M78.3,61.9c-0.2-0.1-0.4,0.1-0.5,0.3c-0.1,0.2,0,0.4,0.3,0.5c0.2,0,0.3,0.1,0.5,0.2
							c0.2,0.1,0.3,0.1,0.6,0.2c0.1-0.1,0.3-0.2,0.3-0.3c0-0.1,0-0.4-0.1-0.4C79,62.2,78.7,62.1,78.3,61.9z"/>
						<path class="st1" d="M13.5,59.3c-1.2,0.2-2,1-3.1,1.4c0,0,0,0.1,0,0.1c0.2-0.1,0.4-0.1,0.6-0.2c0.7-0.3,1.4-0.5,2.1-0.8
							C13.4,59.8,13.5,59.6,13.5,59.3z"/>
						<path class="st1" d="M64.6,40.7c0.6-0.3,0.9-0.8,1.2-1.3c0.1-0.1,0-0.3,0-0.4c0,0-0.1,0-0.1-0.1c-0.4,0.3-0.7,0.6-1.1,0.9
							c-0.1,0.1-0.3,0.3-0.4,0.5c0,0.1,0,0.3,0.1,0.3C64.3,40.6,64.5,40.7,64.6,40.7z"/>
						<path class="st1" d="M89.4,64.5c-0.1,0.1-0.3,0.1-0.5,0.1c-0.3,0.1-0.6,0.1-1,0.2c0,0,0,0.1,0,0.1c0.3,0.1,0.7,0.2,0.9,0.3
							c0.4,0.2,0.6,0.3,0.9-0.1c0.1-0.2,0.2-0.3,0-0.5C89.7,64.5,89.6,64.4,89.4,64.5z"/>
						<path class="st1" d="M83,54.2c0,0,0.1-0.2,0-0.2c-0.3-0.2-0.6-0.4-0.9-0.6c-0.2,0.2-0.5,0.3-0.6,0.4c-0.1,0.1-0.1,0.2-0.1,0.3
							c0.1,0,0.2,0.1,0.3,0.1c0.2,0,0.3-0.1,0.5,0.1c0.1,0.1,0.2,0.1,0.3,0.1C82.7,54.4,82.9,54.3,83,54.2z"/>
						<path class="st1" d="M80.5,56.8c0,0.1,0,0.4,0.1,0.5c0.6,0.5,1,0.4,1.5-0.2c-0.4-0.2-0.8-0.3-1.3-0.4
							C80.8,56.5,80.6,56.7,80.5,56.8z"/>
						<path class="st1" d="M26,19.1c0.1,0,0.3,0,0.4,0c0.1-0.1,0.2-0.3,0.3-0.5c-0.1-0.2-0.1-0.5-0.3-0.3c-0.4,0.2-0.5,0-0.7-0.2
							c-0.2-0.2-0.3-0.2-0.4,0.1c-0.1,0.2-0.1,0.4,0.1,0.5C25.6,18.8,25.8,19,26,19.1z"/>
						<path class="st1" d="M53,89.3c0,0-0.1,0-0.1,0c0-0.1-0.1-0.2-0.1-0.2c-0.1-0.4-0.8-0.3-0.7,0.1c0,0.2,0.1,0.5,0.2,0.6
							c0.1,0.3,0.1,0.6,0.2,0.9c0,0.1,0.2,0.1,0.3,0.1c0.1,0,0.1-0.1,0.2-0.2c0.1-0.1,0.1-0.2,0.2-0.3c-0.1-0.1-0.1-0.2-0.2-0.2
							C53.2,89.9,53.3,89.5,53,89.3z"/>
						<path class="st1" d="M52.2,54.9c0.1,0.1,0.3,0.1,0.3,0c0.1-0.1,0.2-0.3,0.2-0.4c0-0.3,0-0.5,0-0.8c0,0,0,0,0.1-0.1
							c-0.1-0.1-0.2-0.3-0.2-0.3c-0.1,0-0.3,0.1-0.4,0.2C51.9,53.8,51.9,54.7,52.2,54.9z"/>
						<path class="st1" d="M48.8,89.6c-0.3-0.2-0.6-0.3-0.9-0.4c-0.1,0.5,0.2,0.9,0.4,1.4c0.1,0.2,0.4,0.2,0.5,0
							c0.1-0.1,0.1-0.2,0.1-0.2c-0.1-0.2-0.1-0.4-0.1-0.5C48.9,89.8,48.9,89.7,48.8,89.6z"/>
						<path class="st1" d="M87.8,20c0.2,0,0.3-0.1,0.4-0.3c0.1-0.3,0.2-0.6,0.3-0.9c0-0.1,0-0.2,0-0.4c-0.1,0-0.3,0-0.4,0.1
							c-0.1,0-0.1,0.2-0.2,0.3c-0.2,0.3-0.3,0.6-0.5,0.9c-0.1,0.1-0.1,0.3-0.2,0.4c0,0,0.1,0,0.1,0.1C87.6,20.2,87.7,20.1,87.8,20z"
							/>
						<path class="st1" d="M12.2,56.8c-0.1-0.3-0.3-0.5-0.4-0.8c-0.5,0.2-0.9,0.4-1.4,0.6C11,56.9,11.6,57.2,12.2,56.8z"/>
						<path class="st1" d="M83.9,17.2c0.1-0.1,0.3-0.2,0.4-0.3c0.2-0.3,0.3-0.6,0.5-0.9c0-0.1,0-0.2,0-0.2c0,0-0.2-0.1-0.2-0.1
							c-0.2,0.1-0.4,0.3-0.5,0.4c-0.2,0.3-0.3,0.5-0.4,0.8c0,0.1,0,0.2,0.1,0.3C83.8,17.2,83.9,17.2,83.9,17.2z"/>
						<path class="st1" d="M82.6,74.1c0.2,0.5,1.2,0.8,1.7,0.8C83.9,74.1,83.6,73.9,82.6,74.1z"/>
						<path class="st1" d="M60.6,9c0.5-0.2,0.9-0.2,1.4,0c-0.2-0.3-0.4-0.4-0.6-0.4c-0.1,0-0.2-0.1-0.3-0.2
							c-0.1-0.1-0.2-0.3-0.2-0.2c-0.1,0-0.2,0.1-0.3,0.2c-0.1,0.1-0.1,0.1-0.1,0.2c0,0.1,0,0.2-0.1,0.3C60.4,8.9,60.5,9,60.6,9z"/>
						<path class="st1" d="M89.9,24.4c0.4-0.3,0.7-0.5,1.1-0.8c0,0,0-0.1,0-0.1c0-0.3-0.1-0.4-0.3-0.3c-0.1,0-0.2,0.1-0.3,0.2
							c-0.2,0.3-0.5,0.6-0.7,0.9c0,0,0,0.1,0,0.2C89.7,24.3,89.8,24.4,89.9,24.4z"/>
						<path class="st1" d="M80.6,14.1c0-0.1,0.1-0.2,0.1-0.2c0.1-0.2,0.3-0.4,0.1-0.6c-0.2-0.2-0.4,0.1-0.5,0.2
							c0,0.1-0.1,0.1-0.1,0.2C80,13.8,80,14,79.9,14.1c0,0.1-0.1,0.2-0.1,0.3c0.1,0,0.2,0.1,0.2,0.1C80.4,14.5,80.5,14.3,80.6,14.1z
							"/>
						<path class="st1" d="M76.3,12.7c0.3,0,0.5-0.4,0.5-0.7c0-0.1,0-0.2,0-0.3c0-0.1-0.1-0.3-0.2-0.3c-0.1,0-0.2,0.1-0.3,0.2
							c-0.1,0.1-0.1,0.2-0.1,0.3c-0.1,0.1-0.1,0.3-0.1,0.4c0,0.1-0.1,0.2,0,0.3C76.1,12.7,76.3,12.8,76.3,12.7z"/>
						<path class="st1" d="M27.5,17.5c0.3,0,0.5-0.2,0.4-0.5c0-0.2-0.1-0.3-0.1-0.5c-0.1-0.3-0.2-0.3-0.4-0.2
							c-0.2,0.1-0.3,0.8-0.1,1C27.3,17.4,27.5,17.5,27.5,17.5z"/>
						<path class="st1" d="M86.4,68c0,0,0,0.1,0,0.1c0.5,0.1,0.9,0.2,1.4,0.3c0.5,0,0.6-0.1,0.4-0.5C87.6,67.9,87,68,86.4,68z"/>
						<path class="st1" d="M72,10.5c0.1,0,0.3-0.1,0.4-0.2c0.1-0.1,0.1-0.3,0.1-0.5c0,0,0,0,0,0c0-0.1,0-0.2,0-0.2
							c0-0.1-0.1-0.3-0.2-0.3c-0.1,0-0.3,0.1-0.3,0.1c-0.1,0.1-0.1,0.2-0.1,0.4c0,0.1,0,0.2,0,0.3C71.7,10.3,71.8,10.5,72,10.5z"/>
						<path class="st1" d="M19.4,26.8c0-0.2-0.3-0.9-0.5-0.9c-0.3-0.1-0.5-0.1-0.8-0.1C18.2,26.2,18.6,26.5,19.4,26.8z"/>
						<path class="st1" d="M52,9.4c0,0,0.2-0.1,0.2-0.2c0-0.3,0-0.5,0-0.8c0-0.1-0.1-0.3-0.2-0.4c0,0-0.2,0-0.2,0.1
							c-0.1,0.1-0.1,0.3-0.1,0.4c0,0.1,0,0.3,0,0.4C51.5,9.4,51.5,9.4,52,9.4z"/>
						<path class="st1" d="M67.2,8.9c0-0.1-0.1-0.3-0.2-0.4c-0.1,0.1-0.2,0.1-0.3,0.2c-0.1,0.1-0.2,0.3-0.3,0.4
							c-0.2,0.2-0.2,0.4,0,0.6C66.9,9.7,67.1,9.3,67.2,8.9z"/>
						<path class="st1" d="M92.6,26.5c0.1-0.1,0.1-0.1,0.1-0.2c0.1-0.2-0.1-0.4-0.2-0.3c-0.4,0.2-0.7,0.5-1.1,0.8
							c0,0.1,0.1,0.1,0.1,0.2C91.8,26.8,92.2,26.8,92.6,26.5z"/>
						<path class="st1" d="M86,70.9c-0.5,0.3-0.9-0.4-1.5-0.3c0.1,0.1,0.2,0.2,0.2,0.3c0.3,0.2,0.6,0.3,1,0.5c0.1,0,0.2,0,0.3,0
							c0-0.1,0-0.2,0-0.3C86,71.1,86,71,86,70.9z"/>
						<path class="st1" d="M74,40.9c0.2,0,0.4,0,0.6-0.1c0.1,0,0.2-0.1,0.3-0.2c-0.1-0.1-0.1-0.2-0.2-0.3c-0.1-0.1-0.2-0.2-0.3-0.2
							c-0.2,0-0.4,0-0.5,0.1c-0.1,0-0.1,0.3,0,0.4C73.8,40.8,73.9,40.8,74,40.9z"/>
						<path class="st1" d="M54.7,89.2c0.1,0.3,0.1,0.6,0.3,0.9c0.1,0.1,0.3,0.1,0.5,0.2c0,0,0.2-0.1,0.2-0.1
							c-0.1-0.2-0.1-0.5-0.3-0.6C55.3,89.3,55,89.3,54.7,89.2z"/>
						<path class="st1" d="M17.4,28.7c0.3,0.1,0.4,0.1,0.5-0.2c-0.2-0.1-0.3-0.2-0.5-0.3c-0.2-0.1-0.4-0.1-0.5-0.1
							c-0.1,0-0.2,0-0.3-0.1C16.7,28.3,16.8,28.4,17.4,28.7z"/>
						<path class="st1" d="M40.2,34.6c0-0.2,0-0.4,0-0.5c-0.1-0.3-0.3-0.6-0.7-0.5C39.3,34.2,39.8,34.3,40.2,34.6z"/>
						<path class="st1" d="M23.9,20.7c0.1,0.1,0.2,0.1,0.4,0.1c0-0.2,0-0.4,0-0.5c-0.2-0.2-0.4-0.3-0.6-0.5
							C23.4,20.2,23.6,20.5,23.9,20.7z"/>
						<path class="st1" d="M92.3,29.2c0.3,0.2,0.5,0.1,0.7,0c0.2-0.1,0.3-0.3,0.2-0.6C92.9,28.5,92.6,28.7,92.3,29.2z"/>
						<path class="st1" d="M95,48.7c-0.2-0.1-0.4-0.2-0.7-0.2c-0.1,0.5,0.3,0.8,0.6,0.7c0.1,0,0.2-0.1,0.2-0.2
							C95.2,48.8,95.1,48.7,95,48.7z"/>
						<path class="st1" d="M45.4,10c0.3-0.4,0.3-0.7,0-0.8c-0.1,0-0.3,0.1-0.4,0.2C44.8,9.5,45,9.8,45.4,10z"/>
						<path class="st1" d="M30.7,15c0.1,0,0.3-0.2,0.5-0.4c-0.2-0.2-0.3-0.4-0.5-0.4c-0.3,0-0.4,0.2-0.4,0.4
							C30.4,14.8,30.6,15,30.7,15z"/>
						<path class="st1" d="M94.1,32.7c0.1,0,0.2,0,0.3-0.1c0.1-0.1,0.2-0.3,0.4-0.5c-0.3,0-0.5,0-0.7,0c-0.1,0-0.2,0.2-0.2,0.4
							C94,32.6,94.1,32.7,94.1,32.7z"/>
						<path class="st1" d="M56.6,9.5c0.1-0.2,0.2-0.4,0.2-0.5c0-0.1-0.1-0.3-0.2-0.4c-0.1,0.1-0.2,0.1-0.3,0.2
							C56.1,9,56.3,9.4,56.6,9.5z"/>
						<path class="st1" d="M96.4,40.9c-0.3,0-0.5,0.1-0.5,0.3c0,0.1,0.2,0.2,0.3,0.4c0.1-0.2,0.2-0.3,0.3-0.5
							C96.5,41,96.4,40.9,96.4,40.9z"/>
						<path class="st1" d="M95.7,36c-0.4,0-0.5,0.2-0.6,0.5c0.1,0,0.2,0,0.2,0c0.2,0.1,0.6-0.1,0.6-0.4C95.8,36.1,95.7,36,95.7,36z"
							/>
						<path class="st1" d="M33.2,13.2c0-0.1-0.1-0.2-0.2-0.4c0,0-0.1,0-0.1,0c-0.1,0.2-0.2,0.3-0.3,0.5c0,0.1,0.2,0.2,0.2,0.3
							C33,13.5,33.2,13.3,33.2,13.2z"/>
						<path class="st1" d="M38.6,12.5c0.1-0.1,0.1-0.2,0.2-0.4c-0.2-0.2-0.3-0.3-0.4-0.4c0,0-0.3,0.1-0.3,0.2c0,0.1,0.1,0.3,0.2,0.4
							C38.4,12.4,38.5,12.5,38.6,12.5z"/>
						<path class="st1" d="M95.1,44.6c-0.2,0.1-0.3,0.2-0.5,0.4c0.2,0.2,0.4,0.3,0.4,0.3c0.1-0.1,0.3-0.3,0.4-0.4
							C95.4,44.8,95.2,44.6,95.1,44.6z"/>
						<path class="st1" d="M92,60.3c-0.3,0-0.6,0.2-0.9,0.2c-0.2,0-0.7-0.3-0.8,0c-0.1,0.1-0.1,0.3,0,0.4c-0.1,0-0.1,0-0.2,0
							c0.1,0,0.1,0,0.2,0.1c0.4,0.5,1.8,0.7,2-0.2C92.3,60.5,92.2,60.3,92,60.3z"/>
						<path class="st1" d="M16.7,30.7c0-0.4,0-0.4-0.8-0.6C15.8,30.4,16.2,30.7,16.7,30.7z"/>
						<path class="st1" d="M56.1,89.5c0.1,0.2,0.2,0.4,0.2,0.7C56.6,89.7,56.5,89.4,56.1,89.5z"/>
						<path class="st1" d="M40.2,87.3c0-0.1,0-0.2,0-0.3c-0.1-0.2-0.3-0.3-0.5-0.1c-0.4,0.5-0.4,1.2-0.6,1.7
							c-0.1,0.5,0.7,0.7,0.8,0.2c0,0,0,0,0,0c0,0,0.1,0,0.1,0c0.1-0.1,0.2-0.2,0.2-0.3c0,0,0-0.1,0-0.1c0-0.3,0-0.5,0-0.8
							C40.2,87.4,40.2,87.4,40.2,87.3z"/>
						<path class="st1" d="M56.2,45.8c-0.1-0.2-0.5-0.1-0.4,0.2c0.1,0.4,0.3,0.7,0.5,1.1c0.2,0.3,0.5,0.8,0.9,0.9
							c0.2,0.1,0.4-0.1,0.3-0.3c-0.2-0.3-0.5-0.6-0.7-0.9C56.6,46.4,56.4,46.1,56.2,45.8z"/>
						<path class="st1" d="M59,45.4c0.2,0,0.3-0.3,0.1-0.4c-0.3-0.2-0.6-0.2-0.9-0.3c-0.4-0.1-0.7-0.2-1.1-0.2
							c-0.3,0-0.4,0.3-0.1,0.4c0.3,0.1,0.7,0.2,1,0.3C58.3,45.3,58.7,45.4,59,45.4z"/>
						<path class="st1" d="M59,43.3c0.1,0,0.3-0.1,0.4-0.1c0.2-0.1,0.3-0.2,0.3-0.4c-0.1-0.4-0.7-0.1-0.9,0.1
							C58.6,43,58.8,43.4,59,43.3z"/>
						<path class="st1" d="M59.5,42.4c0.2,0,0.4-0.1,0.5-0.2c0.1-0.1,0.1-0.3-0.1-0.4c-0.2,0-0.4,0-0.6,0.1c-0.1,0-0.1,0.2-0.1,0.3
							C59.2,42.4,59.3,42.5,59.5,42.4z"/>
						<g>
							<path class="st1" d="M82.9,42c-0.1-0.1-0.2-0.2-0.3-0.3c-0.2-0.1-0.4-0.1-0.6-0.1c-0.1,0-0.3,0.1-0.4,0.1
								c-0.1,0-0.1,0.1-0.2,0.1c-0.1,0-0.2,0-0.3,0c-0.1,0-0.2,0.1-0.3,0.2c0.1,0.1,0.1,0.2,0.2,0.2c0,0,0.1,0,0.1,0
								c0.2,0,0.4,0,0.7,0C82.3,42.4,82.6,42.2,82.9,42z"/>
							<path class="st1" d="M84.1,44.5c-0.1-0.1-0.2-0.3-0.4-0.3c-0.2,0-0.4,0-0.7,0c-0.6,0-1.1,0.1-1.7,0.1c-0.1,0-0.1,0-0.2,0.1
								c-0.1,0.1-0.1,0.2-0.2,0.3C81.4,45.2,83.8,45.1,84.1,44.5z"/>
							<path class="st1" d="M82.5,47.1c-0.1,0-0.2,0.1-0.3,0.1c-0.4-0.1-0.6,0-0.8,0.3c0.1,0.3,0.3,0.3,0.5,0.3
								c0.6,0.1,1.2,0.1,1.8,0.1C83.6,47.5,83,47,82.5,47.1z"/>
						</g>
						<g>
							<path class="st1" d="M21.2,42.5C21.2,42.5,21.3,42.5,21.2,42.5c0.3,0.1,0.5,0.2,0.7,0.3c0.3,0,0.4,0.2,0.6,0.3
								c0.2,0.2,0.4,0.1,0.6-0.1c0.1-0.1,0.1-0.1,0.2-0.2c0,0,0-0.1,0.1-0.2c0-0.1,0-0.2,0-0.3c0.1-0.3,0-0.4-0.3-0.5
								c-0.1,0-0.2,0-0.2,0c-0.5-0.1-1,0-1.5,0.1C21.2,42,21.1,42.3,21.2,42.5z"/>
						</g>
					</g>
				</g>
				<g>
					<path class="st1" d="M82.6,47.9c-0.1,0-0.3,0.1-0.4,0.2c-0.1,0.2,0.1,0.5,0.3,0.5c0.1,0,0.3,0,0.4,0.1c0,0,0,0.1,0,0.1
						c0.3-0.1,0.6-0.2,0.9-0.4c0,0,0.1-0.1,0.1-0.2c0,0-0.1-0.1-0.1-0.1C83.4,48,83,47.9,82.6,47.9z"/>
					<path class="st1" d="M81.4,46.5c0.1,0.1,0.1,0.3,0.2,0.3c0.1,0,0.2,0,0.3,0c0.1,0,0.2-0.1,0.3-0.1c0.3,0,0.6-0.1,1-0.1
						c0.1,0,0.2-0.1,0.2-0.2c0,0,0-0.1-0.1-0.2c-0.5-0.1-1-0.3-1.5-0.1C81.6,46.3,81.5,46.4,81.4,46.5z"/>
					<path class="st1" d="M83.8,44.6c0,0,0.1,0,0.1,0c0,0,0-0.1,0-0.2c-0.3-0.2-0.6-0.5-0.9-0.7c-0.2,0.1-0.3,0.2-0.4,0.3
						c-0.1,0.2,0.1,0.3,0.2,0.3C83.2,44.4,83.5,44.5,83.8,44.6z"/>
				</g>
			</g>
		</g>
	</g>
	<g>
		<path class="st2" d="M22.5,34C22.5,34,22.6,34,22.5,34C22.6,34,22.6,34,22.5,34l-0.4,1.4l6.8,2.7c0,0,0,0,0,0.1c0,0,0,0-0.1,0
			L22,35.5l-0.5,1.3c0,0,0,0-0.1,0c0,0,0,0,0-0.1L22.5,34L22.5,34z"/>
		<path class="st2" d="M26,27.9l6.2,4c0,0,0,0,0,0.1c0,0,0,0-0.1,0l-3.1-2l-1.2,1.8l3.1,2c0,0,0,0,0,0.1c0,0,0,0-0.1,0l-6.2-4
			c0,0,0,0,0-0.1c0,0,0,0,0.1,0l3.1,2L29,30L26,27.9C25.9,28,25.9,28,26,27.9C26,27.9,26,27.9,26,27.9z"/>
		<path class="st2" d="M36.1,27.4C36.1,27.4,36.1,27.4,36.1,27.4C36.2,27.4,36.2,27.4,36.1,27.4l-1.4,1.6c0,0,0,0-0.1,0l-5.3-5.1
			c0,0,0,0,0-0.1l1.4-1.5c0,0,0,0,0.1,0c0,0,0,0,0,0.1l-1.4,1.5l2.6,2.5l1.1-1.2c0,0,0,0,0.1,0c0,0,0,0,0,0.1l-1.1,1.2l2.6,2.5
			L36.1,27.4L36.1,27.4z"/>
		<path class="st2" d="M41.4,23.5L38,17c0,0,0-0.1,0-0.1l1-0.5c0.6-0.3,1.3-0.1,1.6,0.5l2.3,4.4c0.3,0.7,0.2,1.3-0.4,1.6L41.4,23.5
			C41.5,23.6,41.4,23.5,41.4,23.5z M42.4,22.9c0.6-0.3,0.7-0.9,0.4-1.5L40.5,17c-0.3-0.6-0.9-0.8-1.5-0.5l-1,0.5l3.4,6.4L42.4,22.9z
			"/>
		<path class="st2" d="M48.8,20.6C48.9,20.6,48.8,20.6,48.8,20.6C48.8,20.7,48.8,20.7,48.8,20.6L48,18.9l-2,0.6l0.3,1.9
			c0,0,0,0.1,0,0.1c0,0,0,0,0,0L45.1,14c0,0,0,0,0,0l0.7-0.2c0,0,0,0,0.1,0L48.8,20.6z M48,18.8l-2.1-4.9L45.2,14l0.8,5.3L48,18.8z"
			/>
		<path class="st2" d="M52.1,20.1l-0.8-7.3c0,0,0,0,0-0.1c0,0,0,0,0,0L52.1,20.1C52.2,20.1,52.2,20.2,52.1,20.1
			C52.1,20.2,52.1,20.2,52.1,20.1z"/>
		<path class="st2" d="M56.1,20l0.5-7.4c0,0,0,0,0,0c0,0,0,0,0,0L56.1,20l1.9,0.1c0,0,0,0,0,0c0,0,0,0,0,0L56.1,20
			C56.1,20.1,56.1,20.1,56.1,20z"/>
		<path class="st2" d="M61.5,20.9C61.5,20.9,61.5,20.9,61.5,20.9l0.8-3.4l-0.4-4.1c0,0,0-0.1,0-0.1c0,0,0,0,0,0c0,0,0,0,0,0.1l0.4,4
			l2.2-3.4c0,0,0,0,0.1,0c0,0,0,0,0,0c0,0,0,0,0,0.1l-2.3,3.5L61.5,20.9C61.5,20.9,61.5,20.9,61.5,20.9z"/>
		<path class="st2" d="M72,21.6c0.3,0.4,0.4,0.9,0,1.4l-0.7,1.1c-0.4,0.6-1.1,0.8-1.7,0.4L68.7,24c0,0,0,0,0-0.1l4-6.2
			c0,0,0,0,0.1,0l0.9,0.6c0.6,0.4,0.7,1.1,0.3,1.7l-0.7,1.1C73,21.6,72.5,21.8,72,21.6z M71.7,21.5C71.6,21.5,71.6,21.5,71.7,21.5
			l-0.9-0.6l-1.9,3l0.9,0.6c0.5,0.4,1.2,0.2,1.5-0.4l0.7-1.1C72.3,22.5,72.2,21.8,71.7,21.5L71.7,21.5z M73.2,21l0.7-1.1
			c0.4-0.6,0.3-1.2-0.3-1.6l-0.9-0.6l-1.9,3l0.9,0.6C72.2,21.8,72.8,21.6,73.2,21z"/>
		<path class="st2" d="M75,29C75,29,75,29,75,29C75,29.1,74.9,29.1,75,29l-1.5-1.4c0,0,0,0,0-0.1l5.2-5.3c0,0,0,0,0.1,0l1.5,1.5
			c0,0,0,0,0,0.1c0,0,0,0-0.1,0l-1.5-1.4l-2.5,2.6l1.1,1.1c0,0,0,0,0,0.1c0,0,0,0-0.1,0L76,25l-2.5,2.6L75,29L75,29z"/>
		<path class="st2" d="M78.4,33.4C78.4,33.5,78.4,33.5,78.4,33.4C78.3,33.5,78.3,33.5,78.4,33.4l-1.3-1.7c0,0,0,0,0-0.1l6-4.2
			c0,0,0,0,0.1,0l1.2,1.7c0,0,0,0,0,0.1c0,0,0,0-0.1,0l-1.2-1.7l-2.9,2.1l0.9,1.3c0,0,0,0,0,0.1c0,0,0,0-0.1,0l-0.9-1.3l-3,2.1
			L78.4,33.4L78.4,33.4z"/>
		<path class="st2" d="M87.7,35.6C87.7,35.7,87.7,35.7,87.7,35.6C87.7,35.7,87.6,35.7,87.7,35.6L87,34.4l-6.7,3c0,0,0,0-0.1,0
			c0,0,0,0,0-0.1l6.7-3L86.4,33c0,0,0,0,0-0.1c0,0,0.1,0,0.1,0L87.7,35.6L87.7,35.6z"/>
	</g>
</g>
</svg>
